<?xml version="1.0" encoding="UTF-8" standalone="no"?><svg xmlns="http://www.w3.org/2000/svg" xmlns:xlink="http://www.w3.org/1999/xlink" contentScriptType="application/ecmascript" contentStyleType="text/css" height="460px" preserveAspectRatio="none" style="width:645px;height:460px;" version="1.1" viewBox="0 0 645 460" width="645px" zoomAndPan="magnify"><defs><filter height="300%" id="fa3c58d8nx927" width="300%" x="-1" y="-1"><feGaussianBlur result="blurOut" stdDeviation="2.0"/><feColorMatrix in="blurOut" result="blurOut2" type="matrix" values="0 0 0 0 0 0 0 0 0 0 0 0 0 0 0 0 0 0 .4 0"/><feOffset dx="4.0" dy="4.0" in="blurOut2" result="blurOut3"/><feBlend in="SourceGraphic" in2="blurOut3" mode="normal"/></filter></defs><g><rect fill="#D8E9EA" height="445.7891" rx="5" ry="5" style="stroke: #4C9EA6; stroke-width: 1.0;" width="225.5" x="141" y="4"/><text fill="#000000" font-family="sans-serif" font-size="13" font-weight="bold" lengthAdjust="spacingAndGlyphs" textLength="42" x="232.75" y="16.0669">Client</text><rect fill="#D8E9EA" height="445.7891" rx="5" ry="5" style="stroke: #4C9EA6; stroke-width: 1.0;" width="121" x="406" y="4"/><text fill="#000000" font-family="sans-serif" font-size="13" font-weight="bold" lengthAdjust="spacingAndGlyphs" textLength="47" x="443" y="16.0669">Server</text><line style="stroke: #4C9EA6; stroke-width: 1.0; stroke-dasharray: 5.0,5.0;" x1="170" x2="170" y1="106.4297" y2="363.4922"/><line style="stroke: #4C9EA6; stroke-width: 1.0; stroke-dasharray: 5.0,5.0;" x1="302.5" x2="302.5" y1="106.4297" y2="363.4922"/><line style="stroke: #4C9EA6; stroke-width: 1.0; stroke-dasharray: 5.0,5.0;" x1="466" x2="466" y1="106.4297" y2="363.4922"/><text fill="#000000" font-family="sans-serif" font-size="14" lengthAdjust="spacingAndGlyphs" textLength="45" x="145" y="103.1279">Mobile</text><ellipse cx="170.5" cy="33.1328" fill="#FFFFFF" filter="url(#fa3c58d8nx927)" rx="8" ry="8" style="stroke: #4C9EA6; stroke-width: 2.0;"/><path d="M170.5,41.1328 L170.5,68.1328 M157.5,49.1328 L183.5,49.1328 M170.5,68.1328 L157.5,83.1328 M170.5,68.1328 L183.5,83.1328 " fill="none" filter="url(#fa3c58d8nx927)" style="stroke: #4C9EA6; stroke-width: 2.0;"/><text fill="#000000" font-family="sans-serif" font-size="14" lengthAdjust="spacingAndGlyphs" textLength="45" x="145" y="375.4873">Mobile</text><ellipse cx="170.5" cy="388.7891" fill="#FFFFFF" filter="url(#fa3c58d8nx927)" rx="8" ry="8" style="stroke: #4C9EA6; stroke-width: 2.0;"/><path d="M170.5,396.7891 L170.5,423.7891 M157.5,404.7891 L183.5,404.7891 M170.5,423.7891 L157.5,438.7891 M170.5,423.7891 L183.5,438.7891 " fill="none" filter="url(#fa3c58d8nx927)" style="stroke: #4C9EA6; stroke-width: 2.0;"/><text fill="#000000" font-family="sans-serif" font-size="14" lengthAdjust="spacingAndGlyphs" textLength="114" x="242.5" y="103.1279">HTTP Interaction</text><ellipse cx="302.5" cy="74.1328" fill="#FFFFFF" filter="url(#fa3c58d8nx927)" rx="12" ry="12" style="stroke: #4C9EA6; stroke-width: 2.0;"/><polygon fill="#4C9EA6" points="298.5,62.1328,304.5,57.1328,302.5,62.1328,304.5,67.1328,298.5,62.1328" style="stroke: #4C9EA6; stroke-width: 1.0;"/><text fill="#000000" font-family="sans-serif" font-size="14" lengthAdjust="spacingAndGlyphs" textLength="114" x="242.5" y="375.4873">HTTP Interaction</text><ellipse cx="302.5" cy="394.7891" fill="#FFFFFF" filter="url(#fa3c58d8nx927)" rx="12" ry="12" style="stroke: #4C9EA6; stroke-width: 2.0;"/><polygon fill="#4C9EA6" points="298.5,382.7891,304.5,377.7891,302.5,382.7891,304.5,387.7891,298.5,382.7891" style="stroke: #4C9EA6; stroke-width: 1.0;"/><rect fill="#FFFFFF" filter="url(#fa3c58d8nx927)" height="30.2969" rx="5" ry="5" style="stroke: #4C9EA6; stroke-width: 1.5;" width="89" x="420" y="71.1328"/><text fill="#000000" font-family="sans-serif" font-size="14" lengthAdjust="spacingAndGlyphs" textLength="75" x="427" y="91.1279">Server App</text><rect fill="#FFFFFF" filter="url(#fa3c58d8nx927)" height="30.2969" rx="5" ry="5" style="stroke: #4C9EA6; stroke-width: 1.5;" width="89" x="420" y="362.4922"/><text fill="#000000" font-family="sans-serif" font-size="14" lengthAdjust="spacingAndGlyphs" textLength="75" x="427" y="382.4873">Server App</text><polygon fill="#4C9EA6" points="313.5,148.4297,303.5,152.4297,313.5,156.4297,309.5,152.4297" style="stroke: #4C9EA6; stroke-width: 1.0;"/><line style="stroke: #4C9EA6; stroke-width: 1.0;" x1="307.5" x2="465.5" y1="152.4297" y2="152.4297"/><text fill="#000000" font-family="sans-serif" font-size="13" font-weight="bold" lengthAdjust="spacingAndGlyphs" textLength="9" x="319.5" y="140.063">1</text><text fill="#000000" font-family="sans-serif" font-size="13" lengthAdjust="spacingAndGlyphs" textLength="123" x="332.5" y="132.4966">Perform a selective</text><text fill="#000000" font-family="sans-serif" font-size="13" lengthAdjust="spacingAndGlyphs" textLength="117" x="332.5" y="147.6294">disclosure request</text><polygon fill="#4C9EA6" points="290.5,182.6953,300.5,186.6953,290.5,190.6953,294.5,186.6953" style="stroke: #4C9EA6; stroke-width: 1.0;"/><line style="stroke: #4C9EA6; stroke-width: 1.0;" x1="170.5" x2="296.5" y1="186.6953" y2="186.6953"/><text fill="#000000" font-family="sans-serif" font-size="13" font-weight="bold" lengthAdjust="spacingAndGlyphs" textLength="9" x="177.5" y="181.7622">2</text><text fill="#000000" font-family="sans-serif" font-size="13" lengthAdjust="spacingAndGlyphs" textLength="52" x="190.5" y="181.7622">scan QR</text><path d="M8,170.6953 L8,185.6953 A5,5 0 0 0 13,190.6953 L157,190.6953 A5,5 0 0 0 162,185.6953 L162,175.6953 L152,165.6953 L13,165.6953 A5,5 0 0 0 8,170.6953 " fill="#FBEDF0" filter="url(#fa3c58d8nx927)" style="stroke: #4C9EA6; stroke-width: 1.0;"/><path d="M152,165.6953 L152,173.1953 A2.5,2.5 0 0 0 154.5,175.6953 L162,175.6953 L152,165.6953 " fill="#FBEDF0" style="stroke: #4C9EA6; stroke-width: 1.0;"/><text fill="#000000" font-family="sans-serif" font-size="13" lengthAdjust="spacingAndGlyphs" textLength="133" x="14" y="182.7622">JWT encoded as a QR</text><line style="stroke: #4C9EA6; stroke-width: 1.0;" x1="170.5" x2="212.5" y1="220.9609" y2="220.9609"/><line style="stroke: #4C9EA6; stroke-width: 1.0;" x1="212.5" x2="212.5" y1="220.9609" y2="233.9609"/><line style="stroke: #4C9EA6; stroke-width: 1.0;" x1="171.5" x2="212.5" y1="233.9609" y2="233.9609"/><polygon fill="#4C9EA6" points="181.5,229.9609,171.5,233.9609,181.5,237.9609,177.5,233.9609" style="stroke: #4C9EA6; stroke-width: 1.0;"/><text fill="#000000" font-family="sans-serif" font-size="13" font-weight="bold" lengthAdjust="spacingAndGlyphs" textLength="9" x="177.5" y="215.895">3</text><text fill="#000000" font-family="sans-serif" font-size="13" lengthAdjust="spacingAndGlyphs" textLength="105" x="190.5" y="215.895">approve request</text><polygon fill="#4C9EA6" points="454.5,279.0938,464.5,283.0938,454.5,287.0938,458.5,283.0938" style="stroke: #4C9EA6; stroke-width: 1.0;"/><line style="stroke: #4C9EA6; stroke-width: 1.0;" x1="170.5" x2="460.5" y1="283.0938" y2="283.0938"/><text fill="#000000" font-family="sans-serif" font-size="13" font-weight="bold" lengthAdjust="spacingAndGlyphs" textLength="9" x="177.5" y="278.1606">4</text><text fill="#000000" font-family="sans-serif" font-size="13" lengthAdjust="spacingAndGlyphs" textLength="51" x="190.5" y="278.1606">callback</text><path d="M471,251.9609 L471,296.9609 A5,5 0 0 0 476,301.9609 L626,301.9609 A5,5 0 0 0 631,296.9609 L631,256.9609 L621,246.9609 L476,246.9609 A5,5 0 0 0 471,251.9609 " fill="#FBEDF0" filter="url(#fa3c58d8nx927)" style="stroke: #4C9EA6; stroke-width: 1.0;"/><path d="M621,246.9609 L621,254.4609 A2.5,2.5 0 0 0 623.5,256.9609 L631,256.9609 L621,246.9609 " fill="#FBEDF0" style="stroke: #4C9EA6; stroke-width: 1.0;"/><text fill="#000000" font-family="sans-serif" font-size="13" lengthAdjust="spacingAndGlyphs" textLength="135" x="477" y="264.0278">POST to callback URL</text><text fill="#000000" font-family="sans-serif" font-size="13" lengthAdjust="spacingAndGlyphs" textLength="74" x="477" y="279.1606">given in the</text><text fill="#000000" font-family="sans-serif" font-size="13" lengthAdjust="spacingAndGlyphs" textLength="117" x="477" y="294.2935">disclosure request</text><line style="stroke: #4C9EA6; stroke-width: 1.0;" x1="466.5" x2="508.5" y1="332.4922" y2="332.4922"/><line style="stroke: #4C9EA6; stroke-width: 1.0;" x1="508.5" x2="508.5" y1="332.4922" y2="345.4922"/><line style="stroke: #4C9EA6; stroke-width: 1.0;" x1="467.5" x2="508.5" y1="345.4922" y2="345.4922"/><polygon fill="#4C9EA6" points="477.5,341.4922,467.5,345.4922,477.5,349.4922,473.5,345.4922" style="stroke: #4C9EA6; stroke-width: 1.0;"/><text fill="#000000" font-family="sans-serif" font-size="13" font-weight="bold" lengthAdjust="spacingAndGlyphs" textLength="9" x="473.5" y="327.4263">5</text><text fill="#000000" font-family="sans-serif" font-size="13" lengthAdjust="spacingAndGlyphs" textLength="30" x="486.5" y="327.4263">login</text></g></svg>