<svg id="Layer_1" data-name="Layer 1" xmlns="http://www.w3.org/2000/svg" xmlns:xlink="http://www.w3.org/1999/xlink" viewBox="0 0 240 240"><defs><style>.cls-1{fill:#fff;}.cls-2{opacity:0.7;}.cls-3{fill:url(#linear-gradient);}.cls-4{opacity:0.5;}.cls-5{fill:url(#linear-gradient-2);}.cls-6{opacity:0.75;}.cls-7{fill:url(#linear-gradient-3);}.cls-8{opacity:0.65;}.cls-9{fill:url(#linear-gradient-4);}.cls-10{fill:url(#linear-gradient-5);}.cls-11{fill:url(#linear-gradient-6);}.cls-12{opacity:0.8;}.cls-13{fill:url(#linear-gradient-7);}.cls-14{opacity:0.6;}.cls-15{fill:url(#linear-gradient-8);}.cls-16{fill:url(#linear-gradient-9);}</style><linearGradient id="linear-gradient" x1="79.59" y1="20" x2="79.59" y2="35.49" gradientUnits="userSpaceOnUse"><stop offset="0" stop-color="#f9f9f9"/><stop offset="1" stop-color="#f9f9f9" stop-opacity="0.54"/></linearGradient><linearGradient id="linear-gradient-2" x1="160" y1="220" x2="160" y2="204.51" gradientUnits="userSpaceOnUse"><stop offset="0.31" stop-color="#f9f9f9"/><stop offset="1" stop-color="#f9f9f9" stop-opacity="0.54"/></linearGradient><linearGradient id="linear-gradient-3" x1="120" y1="126.25" x2="120" y2="141.75" xlink:href="#linear-gradient"/><linearGradient id="linear-gradient-4" x1="123.5" y1="180.63" x2="123.5" y2="172.88" xlink:href="#linear-gradient"/><linearGradient id="linear-gradient-5" x1="18.62" y1="164.84" x2="18.62" y2="155.16" xlink:href="#linear-gradient"/><linearGradient id="linear-gradient-6" x1="221.38" y1="164.84" x2="221.38" y2="155.16" xlink:href="#linear-gradient"/><linearGradient id="linear-gradient-7" x1="160" y1="72.2" x2="160" y2="59.8" xlink:href="#linear-gradient"/><linearGradient id="linear-gradient-8" x1="37.84" y1="97.7" x2="37.84" y2="85.3" xlink:href="#linear-gradient"/><linearGradient id="linear-gradient-9" x1="230.16" y1="97.7" x2="230.16" y2="85.3" xlink:href="#linear-gradient"/></defs><title>Pattern (white)</title><rect class="cls-1" width="240" height="240"/><g class="cls-2"><rect class="cls-3" x="20" y="20" width="119.19" height="15.49" rx="4" ry="4"/></g><g class="cls-4"><rect class="cls-5" x="100" y="204.51" width="120" height="15.49" rx="4" ry="4"/></g><g class="cls-6"><rect class="cls-7" x="60.41" y="126.25" width="119.19" height="15.49" rx="4" ry="4"/></g><g class="cls-8"><rect class="cls-9" x="103.5" y="172.88" width="40" height="7.75" rx="2" ry="2"/></g><g class="cls-2"><path class="cls-10" d="M37.25,162.84a2,2,0,0,1-2,2H0a0,0,0,0,1,0,0v-9.54a.12.12,0,0,1,.12-.12H35.25a2,2,0,0,1,2,2Z" transform="translate(0 0)"/></g><g class="cls-2"><path class="cls-11" d="M240,164.84h-35.2a2,2,0,0,1-2-2v-5.68a2,2,0,0,1,2-2H240a0,0,0,0,1,0,0v9.6A0,0,0,0,1,240,164.84Z" transform="translate(0 0)"/></g><g class="cls-12"><rect class="cls-13" x="112.32" y="59.8" width="95.35" height="12.4" rx="4" ry="4"/></g><g class="cls-14"><path class="cls-15" d="M75.68,93.7a4,4,0,0,1-4,4H0a0,0,0,0,1,0,0V85.33a0,0,0,0,1,0,0H71.68a4,4,0,0,1,4,4Z" transform="translate(0 0)"/></g><g class="cls-14"><path class="cls-16" d="M240,97.7H224.32a4,4,0,0,1-4-4V89.3a4,4,0,0,1,4-4H240a0,0,0,0,1,0,0V97.67A0,0,0,0,1,240,97.7Z" transform="translate(0 0)"/></g></svg>