<svg width="121" height="121" viewBox="0 0 121 121" fill="none" xmlns="http://www.w3.org/2000/svg">
<g clip-path="url(#clip0)">
<path fill-rule="evenodd" clip-rule="evenodd" d="M44.1591 31.9639C48.1998 29.6311 48.2634 32.459 52.7705 31.2505C57.2782 30.0436 55.9188 27.5628 60.5848 27.5622C65.2513 27.5622 63.8925 30.0437 68.3996 31.2511C72.9068 32.4585 72.9702 29.6306 77.0114 31.9638C81.0527 34.2971 78.6352 35.7657 81.9349 39.0655C84.6157 41.7463 86.0881 40.6535 87.7971 42.3167C88.1916 42.7005 88.5994 43.2309 89.0365 43.9889C91.3692 48.0296 88.5413 48.093 89.7492 52.6007C90.9567 57.1078 93.4376 55.7485 93.4376 60.415C93.4376 65.0815 90.9567 63.7222 89.7493 68.2293C88.5413 72.737 91.3692 72.8005 89.0365 76.8412C86.7032 80.8824 85.2341 78.4654 81.9349 81.7646C78.6346 85.0638 81.0527 86.5329 77.0115 88.8662C72.9702 91.1995 72.9067 88.3716 68.3996 89.579C63.8924 90.7864 65.2518 93.2673 60.5853 93.2673C55.9187 93.2673 57.2781 90.7864 52.7704 89.5795C48.2633 88.3711 48.1999 91.199 44.1592 88.8662C40.1179 86.533 42.5349 85.0638 39.2357 81.7646C35.936 78.4649 34.4674 80.8824 32.1341 76.8412C29.8008 72.7999 32.6288 72.7365 31.4208 68.2299C30.2134 63.7228 27.7325 65.0811 27.7325 60.4145C27.733 55.7485 30.2139 57.1079 31.4208 52.6003C32.6287 48.0936 29.8009 48.0301 32.1341 43.9889C34.4674 39.9476 35.936 42.3652 39.2357 39.0654C42.5349 35.7662 40.1179 34.2971 44.1591 31.9639Z" stroke="#5C50CA" stroke-width="4.80778"/>
<path d="M47.9965 47.8286C41.0452 54.7799 41.0452 66.0502 47.9965 73.0015C53.188 78.1929 60.7884 79.5072 67.1996 76.9444M73.1694 73.0015C80.1207 66.0502 80.1207 54.7799 73.1694 47.8286C68.0082 42.6674 60.4659 41.3383 54.0784 43.8413" stroke="#5C50CA" stroke-width="4.80778" stroke-linecap="round"/>
</g>
<defs>
<clipPath id="clip0">
<rect width="85.4396" height="85.4396" fill="white" transform="matrix(-0.707107 -0.707107 -0.707107 0.707107 121 60.415)"/>
</clipPath>
</defs>
</svg>
