<svg width="90" height="90" viewBox="0 0 90 90" fill="none" xmlns="http://www.w3.org/2000/svg">
<path d="M45 0C56.9347 0 68.3807 4.74106 76.8198 13.1802C85.2589 21.6193 90 33.0653 90 45C90 56.9347 85.2589 68.3807 76.8198 76.8198C68.3807 85.2589 56.9347 90 45 90C33.0653 90 21.6193 85.2589 13.1802 76.8198C4.74106 68.3807 0 56.9347 0 45C0 33.0653 4.74106 21.6193 13.1802 13.1802C21.6193 4.74106 33.0653 0 45 0ZM45 9C35.4522 9 26.2955 12.7928 19.5442 19.5442C12.7928 26.2955 9 35.4522 9 45C9 54.5478 12.7928 63.7045 19.5442 70.4558C26.2955 77.2072 35.4522 81 45 81C54.5478 81 63.7045 77.2072 70.4558 70.4558C77.2072 63.7045 81 54.5478 81 45C81 35.4522 77.2072 26.2955 70.4558 19.5442C63.7045 12.7928 54.5478 9 45 9ZM45 49.5C43.8065 49.5 42.6619 49.0259 41.818 48.182C40.9741 47.3381 40.5 46.1935 40.5 45V27C40.5 25.8065 40.9741 24.6619 41.818 23.818C42.6619 22.9741 43.8065 22.5 45 22.5C46.1935 22.5 47.3381 22.9741 48.182 23.818C49.0259 24.6619 49.5 25.8065 49.5 27V45C49.5 46.1935 49.0259 47.3381 48.182 48.182C47.3381 49.0259 46.1935 49.5 45 49.5ZM45 67.5C43.8065 67.5 42.6619 67.0259 41.818 66.182C40.9741 65.3381 40.5 64.1935 40.5 63C40.5 61.8065 40.9741 60.6619 41.818 59.818C42.6619 58.9741 43.8065 58.5 45 58.5C46.1935 58.5 47.3381 58.9741 48.182 59.818C49.0259 60.6619 49.5 61.8065 49.5 63C49.5 64.1935 49.0259 65.3381 48.182 66.182C47.3381 67.0259 46.1935 67.5 45 67.5Z" fill="#D63A59"/>
</svg>
