<svg width="40" height="38" viewBox="0 0 40 38" fill="none" xmlns="http://www.w3.org/2000/svg">
<path d="M22.463 0.435887L8.34212 4.75102C7.55437 4.99174 7.10791 5.85141 7.34494 6.67114L15.8567 36.1087C16.0937 36.9285 16.9245 37.3978 17.7122 37.1571L31.8331 32.842C32.6208 32.6013 33.0673 31.7416 32.8302 30.9219L24.3185 1.48426C24.0815 0.664536 23.2507 0.195162 22.463 0.435887Z" fill="#5C50CA"/>
<path d="M22.463 0.435887L8.34212 4.75102C7.96383 4.86662 7.64625 5.13386 7.45924 5.49395C7.27223 5.85404 7.23111 6.27749 7.34494 6.67114L7.98868 8.89751L24.9622 3.71064L24.3185 1.48426C24.2047 1.09062 23.9452 0.759015 23.5972 0.562406C23.2493 0.365797 22.8413 0.320286 22.463 0.435887V0.435887Z" fill="#3F3D4B"/>
<path d="M14.9985 33.1403L15.8569 36.1088C15.9707 36.5024 16.2301 36.834 16.5781 37.0306C16.9261 37.2272 17.3341 37.2727 17.7124 37.1571L31.8332 32.842C32.2115 32.7264 32.5291 32.4592 32.7161 32.0991C32.9031 31.739 32.9442 31.3155 32.8304 30.9219L31.9721 27.9534L14.9985 33.1403Z" fill="#3F3D4B"/>
<path d="M19.1841 3.32255L12.5278 5.35662C12.4622 5.37668 12.4249 5.44832 12.4447 5.51663C12.4645 5.58494 12.5337 5.62406 12.5993 5.604L19.2556 3.56993C19.3213 3.54987 19.3585 3.47823 19.3387 3.40992C19.319 3.34161 19.2497 3.30249 19.1841 3.32255Z" fill="#B2B1C2"/>
<path d="M24.5582 33.9882C25.2147 33.7876 25.5867 33.0712 25.3892 32.3881C25.1917 31.705 24.4994 31.3139 23.8429 31.5145C23.1865 31.7151 22.8144 32.4315 23.0119 33.1146C23.2095 33.7977 23.9017 34.1888 24.5582 33.9882Z" fill="#B2B1C2"/>
<path d="M29.189 25.8423L23.4836 27.5858C23.3523 27.6259 23.2779 27.7692 23.3174 27.9058L23.675 29.1427C23.7145 29.2793 23.853 29.3575 23.9843 29.3174L29.6897 27.5739C29.821 27.5338 29.8954 27.3905 29.8559 27.2539L29.4982 26.017C29.4587 25.8804 29.3203 25.8022 29.189 25.8423Z" fill="#5C50CA"/>
<path d="M22.0574 28.0216L16.352 29.7651C16.2207 29.8052 16.1463 29.9485 16.1858 30.0851L16.5434 31.322C16.5829 31.4586 16.7214 31.5369 16.8527 31.4967L22.5581 29.7533C22.6894 29.7131 22.7638 29.5699 22.7243 29.4332L22.3666 28.1964C22.3271 28.0597 22.1887 27.9815 22.0574 28.0216Z" stroke="#5C50CA" stroke-width="0.164659" stroke-miterlimit="10"/>
<path d="M21.0187 16.0793L18.9771 14.2801C18.9613 14.2666 18.9427 14.2573 18.9227 14.253C18.9027 14.2487 18.8821 14.2496 18.8626 14.2556C18.8431 14.2615 18.8254 14.2724 18.8109 14.2872C18.7965 14.302 18.7858 14.3203 18.7798 14.3404L18.0257 16.9939C18.0207 17.01 18.019 17.027 18.0204 17.0439C18.0219 17.0608 18.0267 17.0772 18.0344 17.0922C18.0421 17.1071 18.0526 17.1204 18.0653 17.1311C18.078 17.1418 18.0927 17.1497 18.1083 17.1545L18.149 17.1609L19.7047 17.2886C19.7268 17.2898 19.7486 17.2832 19.7665 17.2697L21.0062 16.2958C21.0339 16.2779 21.0535 16.2494 21.061 16.2164C21.0684 16.1833 21.0629 16.1485 21.0458 16.1195C21.0401 16.1067 21.0315 16.0954 21.0208 16.0868L21.0187 16.0793ZM19.1634 15.3001C19.2574 15.2714 19.3577 15.2723 19.4516 15.3028C19.5455 15.3333 19.6288 15.3919 19.6909 15.4713C19.753 15.5507 19.7912 15.6473 19.8006 15.7489C19.81 15.8505 19.7902 15.9525 19.7438 16.042C19.6973 16.1315 19.6262 16.2045 19.5395 16.2518C19.4528 16.2991 19.3543 16.3185 19.2566 16.3076C19.1589 16.2967 19.0663 16.256 18.9906 16.1906C18.9148 16.1252 18.8593 16.038 18.831 15.9402C18.793 15.809 18.8067 15.6678 18.8691 15.5478C18.9314 15.4277 19.0373 15.3387 19.1634 15.3001ZM19.5925 16.7844C19.1171 16.9297 18.5842 16.939 18.5084 16.6768C18.4626 16.5185 18.6104 16.3495 18.8366 16.2104C18.864 16.2426 18.8942 16.2721 18.9268 16.2986C18.7056 16.4281 18.5956 16.5667 18.6177 16.6434C18.6278 16.678 18.6646 16.7072 18.7277 16.7283C18.7281 16.7175 18.7303 16.7068 18.7341 16.6967C18.8268 16.5527 18.963 16.4448 19.1214 16.3899C19.2384 16.428 19.3635 16.4292 19.4807 16.3933C19.598 16.3575 19.7021 16.2863 19.7799 16.1887C19.9379 16.1434 20.106 16.1515 20.26 16.2116C20.2691 16.2189 20.2776 16.2272 20.2852 16.2362C20.3244 16.1838 20.3422 16.138 20.3322 16.1033C20.31 16.0267 20.1466 15.9716 19.8901 15.9881C19.9026 15.9478 19.9114 15.9063 19.9164 15.8643C20.1727 15.8559 20.3934 15.9123 20.4392 16.0707C20.5179 16.3428 20.0632 16.6405 19.5925 16.7844Z" fill="white"/>
<path d="M6.01514 3.15967C4.56597 3.56331 3.50943 5.45675 4.46003 7.17493" stroke="#3F3D4B" stroke-width="0.594117" stroke-linecap="round" stroke-linejoin="round"/>
<path d="M4.09375 0.845337C1.72028 1.50642 -0.010138 4.60753 1.54677 7.4216" stroke="#3F3D4B" stroke-width="0.594117" stroke-linecap="round" stroke-linejoin="round"/>
<path d="M33.9658 35.0339C35.417 34.6381 36.4832 32.7504 35.5414 31.0271" stroke="#3F3D4B" stroke-width="0.594118" stroke-linecap="round"/>
<path d="M35.876 37.3585C38.2528 36.7103 39.999 33.6185 38.4565 30.7961" stroke="#3F3D4B" stroke-width="0.594118" stroke-linecap="round"/>
</svg>
