<svg id="Layer_1" data-name="Layer 1" xmlns="http://www.w3.org/2000/svg" xmlns:xlink="http://www.w3.org/1999/xlink" viewBox="0 0 80 22.87">
    <defs>
        <style>.cls-1{fill:#5954c3;}.cls-2{fill:#5954c3;}</style>
    </defs>
    <title>uPort</title><g id="Home-Smaller">
        <g id="Horizontal-Logo">
            <path id="Fill-1" class="cls-2" d="M73,5.48A.5.5,0,0,0,72.62,5h-.33a6.83,6.83,0,0,0-1.84.32,4.65,4.65,0,0,0-1.84,1.31V5.56h0a.47.47,0,0,0-.44-.48H66.45a.47.47,0,0,0-.45.49v13a.47.47,0,0,0,.45.49h1.7a.47.47,0,0,0,.45-.49V11.77a3.62,3.62,0,0,1,1.07-2.93,4.85,4.85,0,0,1,2.85-1.36h0A.48.48,0,0,0,73,7V5.48Z" transform="translate(0 -0.13)"/>
            <g id="Group-5">
                <g>
                    <path id="Fill-3" class="cls-2" d="M49.1,13.15a2.37,2.37,0,0,1-.92,2,4.78,4.78,0,0,1-2.81.69h-1a.47.47,0,0,1-.46-.47V8.2a.47.47,0,0,1,.47-.47h1a4.81,4.81,0,0,1,2.81.68,2.37,2.37,0,0,1,.92,2Zm1-6.67a7.7,7.7,0,0,0-4.67-1.3H41.63a.48.48,0,0,0-.47.48h0V22.53a.47.47,0,0,0,.47.47h1.83a.47.47,0,0,0,.48-.47V18.91a.47.47,0,0,1,.41-.47h1.08a7.42,7.42,0,0,0,4.64-1.37A4.65,4.65,0,0,0,52,13.15v-2.7A4.7,4.7,0,0,0,50.09,6.48Z" transform="translate(0 -0.13)"/>
                </g>
            </g>
            <path id="Fill-6" class="cls-2" d="M74,15.32a4.34,4.34,0,0,0,.73,2.78,3,3,0,0,0,2.46.9h2.23a.47.47,0,0,0,.46-.47h0V17h0a.46.46,0,0,0-.46-.47H77.29a.59.59,0,0,1-.56-.26,1.73,1.73,0,0,1-.09-.68v-7A.47.47,0,0,1,77,8h2.52A.46.46,0,0,0,80,7.56V6a.46.46,0,0,0-.46-.46H77A.47.47,0,0,1,76.64,5V1.47A.46.46,0,0,0,76.18,1H74.47a.46.46,0,0,0-.46.47V15.32Z" transform="translate(0 -0.13)"/>
            <path id="Fill-8" class="cls-2" d="M59,7.89a3.17,3.17,0,0,0-3.18,3.17v2a3.18,3.18,0,0,0,6.36,0v-2A3.17,3.17,0,0,0,59,7.89M59,19a6,6,0,0,1-6-6v-2a6,6,0,0,1,12-.16V13a6,6,0,0,1-6,6" transform="translate(0 -0.13)"/>
            <path id="Fill-10" class="cls-2" d="M28,5.46A.46.46,0,0,1,28.48,5h1.86a.47.47,0,0,1,.48.46h0v6.91a3.18,3.18,0,0,0,6.36,0V5.46A.47.47,0,0,1,37.66,5h1.86a.46.46,0,0,1,.48.46v6.91a6,6,0,0,1-12,0Z" transform="translate(0 -0.13)"/>
            <g id="Group-14">
                <g>
                    <path id="Fill-12" class="cls-2" d="M11.89,19.21c-3.67,0-7.58-1.07-7.58-3.06,0-1.2,1.41-2.06,3.33-2.56a5.73,5.73,0,0,0,.46.8c-1.88.44-2.95,1.17-2.95,1.76,0,.26.22.55.62.83a.78.78,0,0,1,.12-.22c.41-.54,1.66-1,3.42-1.19a4.64,4.64,0,0,0,5.17,0c1.75.22,3,.65,3.42,1.18A1,1,0,0,1,18,17c.41-.28.62-.57.62-.83,0-.59-1.07-1.32-3-1.76a4.59,4.59,0,0,0,.46-.81c1.92.5,3.34,1.37,3.34,2.57C19.49,18.14,15.58,19.21,11.89,19.21Zm0-11.27A3.72,3.72,0,1,1,8.2,11.66,3.7,3.7,0,0,1,11.89,7.94Zm11.75,9.44L12.68.53a1,1,0,0,0-1.56,0L.15,17.38a1,1,0,0,0,.27,1.3,1,1,0,0,0,.28.13l11,4.16a.94.94,0,0,0,.47,0l11-4.16a1,1,0,0,0,.67-1.15,1.39,1.39,0,0,0-.12-.28Z" transform="translate(0 -0.13)"/>
                </g>
            </g>
        </g>
    </g>
</svg>