<svg width="909" height="881" viewBox="0 0 909 881" fill="none" xmlns="http://www.w3.org/2000/svg">
<path opacity="0.4" d="M840.633 514.158C782.213 666.973 657.518 730.658 492.913 726.168C328.308 721.678 190.596 585.058 202.945 421.924C222.561 162.804 328.308 164.234 492.913 168.723C657.518 173.213 908.195 337.428 840.633 514.158Z" fill="#9DC7CB"/>
<path opacity="0.4" d="M870.633 544.158C812.213 696.973 687.518 760.658 522.913 756.168C358.308 751.678 220.596 615.058 232.945 451.924C252.561 192.804 358.308 194.234 522.913 198.723C687.518 203.213 938.195 367.428 870.633 544.158Z" fill="#9DC7CB"/>
<path d="M215.767 148.457L240.64 131.876C240.764 132.058 240.909 132.27 241.072 132.51C241.704 133.443 242.61 134.805 243.704 136.516C245.892 139.938 248.827 144.751 251.815 150.314C257.812 161.477 263.944 175.517 264.795 187.37C265.78 201.083 261.544 216.207 256.31 228.789C251.075 241.376 244.909 251.261 242.179 254.481C241.462 255.328 240.681 256.31 239.863 257.342L239.765 257.466C238.972 258.466 238.141 259.514 237.278 260.555C235.475 262.732 233.577 264.827 231.691 266.32C229.776 267.835 228.056 268.583 226.574 268.412C225.166 268.249 223.607 267.203 222.115 264.198C216.685 253.264 220.183 243.872 222.421 237.866C222.669 237.199 222.902 236.573 223.106 235.992C223.422 235.089 223.964 233.798 224.645 232.18C228.109 223.938 235.141 207.208 233.986 190.009C233.371 180.847 228.618 170.213 224.1 161.958C221.831 157.811 219.6 154.227 217.937 151.68C217.105 150.406 216.414 149.391 215.931 148.692C215.873 148.609 215.818 148.531 215.767 148.457Z" fill="#EEEEEE" stroke="#D2D2D2" stroke-width="2"/>
<path d="M195.372 165.524L216.194 149.632C216.221 149.672 216.249 149.713 216.278 149.755C216.713 150.386 217.337 151.307 218.093 152.464C219.606 154.779 221.643 158.037 223.743 161.806C227.962 169.377 232.361 178.884 233.355 186.928C235.279 202.513 226.453 219.114 216.375 232.504C207.504 244.29 197.822 253.389 194.124 256.864C193.636 257.324 193.251 257.685 192.987 257.941C190.203 260.642 187.937 261.104 186.225 260.534C184.428 259.936 182.815 258.075 181.673 255.21C179.399 249.505 179.361 240.689 182.723 234.002C184.402 230.663 186.978 227.626 189.896 224.53C190.735 223.641 191.605 222.743 192.488 221.833C194.641 219.612 196.867 217.316 198.887 214.875C204.65 207.911 208.952 199.517 206.33 187.074C205.299 182.176 202.382 176.566 199.78 172.243C198.471 170.067 197.226 168.19 196.307 166.857C195.937 166.32 195.619 165.87 195.372 165.524Z" fill="#EEEEEE" stroke="#D2D2D2" stroke-width="2"/>
<path d="M180.981 187.818C180.114 187.015 179.373 185.567 178.834 184.194C178.594 183.582 178.406 183.017 178.273 182.586L195.383 175.124C195.646 175.409 196.009 175.809 196.444 176.304C197.381 177.371 198.647 178.881 199.961 180.646C202.616 184.212 205.36 188.684 206.112 192.622C207.428 199.507 204.442 206.259 200.342 212.082C197.196 216.548 193.506 220.325 190.788 223.106C189.961 223.951 189.225 224.705 188.621 225.358C185.192 229.066 182.38 230.505 180.245 230.641C178.197 230.771 176.516 229.711 175.247 227.708C173.964 225.681 173.174 222.772 173.011 219.536C172.848 216.312 173.311 212.848 174.451 209.754C176.276 204.801 179.298 202.24 181.771 200.145C182.381 199.628 182.958 199.139 183.475 198.649C184.75 197.442 185.843 196.037 185.502 194.085C185.343 193.17 184.88 192.232 184.148 191.23C183.413 190.224 182.37 189.104 180.981 187.818Z" fill="#EEEEEE" stroke="#D2D2D2" stroke-width="2"/>
<mask id="path-6-inside-1" fill="white">
<path fill-rule="evenodd" clip-rule="evenodd" d="M38.6074 46.0194L99.8465 127.019C111.998 159.5 140.802 192.867 166 202C169.296 203.195 200.686 175.426 210.951 155.922C213.432 151.209 223.754 142.305 236.042 139.825C258.886 150.951 282.299 172.642 279.617 195.504C278.003 209.266 267.799 226.019 267.799 226.019C252.601 250.228 276.758 272.355 287.32 250.33C287.32 250.33 305.069 223.471 308.738 202.659C313.214 177.265 307.02 158.139 289.469 139.335C257.512 98.5586 199.78 92.5068 157.581 96.5478L129.214 59.1179L38.6074 46.0194Z"/>
</mask>
<path fill-rule="evenodd" clip-rule="evenodd" d="M38.6074 46.0194L99.8465 127.019C111.998 159.5 140.802 192.867 166 202C169.296 203.195 200.686 175.426 210.951 155.922C213.432 151.209 223.754 142.305 236.042 139.825C258.886 150.951 282.299 172.642 279.617 195.504C278.003 209.266 267.799 226.019 267.799 226.019C252.601 250.228 276.758 272.355 287.32 250.33C287.32 250.33 305.069 223.471 308.738 202.659C313.214 177.265 307.02 158.139 289.469 139.335C257.512 98.5586 199.78 92.5068 157.581 96.5478L129.214 59.1179L38.6074 46.0194Z" fill="#EEEEEE"/>
<path d="M99.8465 127.019L101.72 126.318L101.618 126.045L101.442 125.813L99.8465 127.019ZM38.6074 46.0194L38.8936 44.04L34.0772 43.3437L37.012 47.2256L38.6074 46.0194ZM166 202L166.682 200.12L166.682 200.12L166 202ZM210.951 155.922L212.721 156.854L212.721 156.854L210.951 155.922ZM236.042 139.825L236.918 138.027L236.309 137.73L235.646 137.864L236.042 139.825ZM279.617 195.504L277.631 195.271L279.617 195.504ZM267.799 226.019L269.492 227.082L269.5 227.071L269.507 227.059L267.799 226.019ZM287.32 250.33L285.651 249.228L285.575 249.342L285.516 249.466L287.32 250.33ZM308.738 202.659L306.768 202.312L308.738 202.659ZM289.469 139.335L287.894 140.569L287.948 140.637L288.006 140.7L289.469 139.335ZM157.581 96.5478L155.987 97.7558L156.661 98.645L157.772 98.5386L157.581 96.5478ZM129.214 59.1179L130.808 57.9098L130.312 57.2558L129.5 57.1384L129.214 59.1179ZM101.442 125.813L40.2028 44.8132L37.012 47.2256L98.2512 128.225L101.442 125.813ZM166.682 200.12C154.524 195.713 141.289 185.359 129.535 171.947C117.805 158.562 107.701 142.305 101.72 126.318L97.9733 127.72C104.144 144.214 114.518 160.881 126.527 174.583C138.512 188.258 152.279 199.154 165.319 203.88L166.682 200.12ZM209.181 154.991C204.202 164.452 193.977 176.09 184.472 185.286C179.739 189.864 175.244 193.779 171.752 196.461C170 197.807 168.545 198.809 167.464 199.427C166.918 199.74 166.529 199.918 166.284 200.003C165.917 200.129 166.188 199.941 166.682 200.12L165.319 203.88C166.224 204.209 167.127 203.943 167.587 203.785C168.169 203.584 168.803 203.27 169.45 202.899C170.757 202.151 172.375 201.027 174.189 199.633C177.832 196.835 182.443 192.813 187.253 188.161C196.832 178.894 207.435 166.896 212.721 156.854L209.181 154.991ZM235.646 137.864C229.169 139.171 223.262 142.156 218.665 145.402C214.12 148.611 210.632 152.235 209.181 154.991L212.721 156.854C213.751 154.897 216.663 151.712 220.972 148.67C225.228 145.665 230.626 142.958 236.438 141.785L235.646 137.864ZM281.604 195.737C283.035 183.531 277.482 171.85 268.913 161.954C260.329 152.04 248.531 143.683 236.918 138.027L235.166 141.623C246.396 147.092 257.727 155.145 265.889 164.573C274.068 174.019 278.881 184.615 277.631 195.271L281.604 195.737ZM267.799 226.019C269.507 227.059 269.507 227.059 269.507 227.058C269.507 227.058 269.507 227.058 269.508 227.057C269.508 227.057 269.509 227.056 269.51 227.054C269.511 227.051 269.514 227.048 269.516 227.043C269.522 227.034 269.53 227.02 269.541 227.003C269.562 226.968 269.592 226.917 269.632 226.851C269.71 226.719 269.824 226.527 269.969 226.278C270.258 225.78 270.671 225.058 271.171 224.15C272.169 222.334 273.516 219.77 274.916 216.767C277.694 210.804 280.759 202.941 281.604 195.737L277.631 195.271C276.862 201.828 274.017 209.223 271.29 215.077C269.936 217.983 268.631 220.467 267.666 222.222C267.183 223.1 266.786 223.794 266.512 224.266C266.374 224.502 266.267 224.683 266.196 224.803C266.16 224.863 266.133 224.908 266.115 224.938C266.106 224.953 266.1 224.963 266.095 224.97C266.093 224.973 266.092 224.976 266.091 224.977C266.091 224.978 266.09 224.978 266.09 224.979C266.09 224.979 266.09 224.979 266.09 224.979C266.09 224.978 266.09 224.978 267.799 226.019ZM285.516 249.466C283.052 254.605 280 256.768 277.315 257.261C274.622 257.755 271.737 256.674 269.356 254.142C264.61 249.096 262.304 238.534 269.492 227.082L266.105 224.955C258.096 237.713 260.269 250.319 266.442 256.883C269.521 260.156 273.705 261.99 278.037 261.195C282.378 260.399 286.307 257.068 289.123 251.195L285.516 249.466ZM306.768 202.312C304.99 212.4 299.758 224.092 294.883 233.369C292.457 237.984 290.145 241.955 288.439 244.773C287.587 246.181 286.887 247.299 286.401 248.063C286.159 248.445 285.97 248.739 285.842 248.935C285.778 249.034 285.73 249.108 285.697 249.157C285.681 249.182 285.669 249.2 285.662 249.212C285.658 249.218 285.655 249.222 285.653 249.225C285.652 249.226 285.652 249.227 285.651 249.227C285.651 249.228 285.651 249.228 285.651 249.228C285.651 249.228 285.651 249.228 287.32 250.33C288.988 251.433 288.988 251.433 288.989 251.432C288.989 251.432 288.989 251.432 288.989 251.431C288.99 251.43 288.991 251.428 288.992 251.426C288.995 251.423 288.999 251.417 289.003 251.41C289.013 251.396 289.026 251.375 289.044 251.348C289.079 251.295 289.131 251.215 289.198 251.112C289.332 250.905 289.528 250.601 289.777 250.208C290.277 249.422 290.992 248.279 291.861 246.844C293.598 243.975 295.952 239.931 298.423 235.23C303.34 225.874 308.817 213.73 310.707 203.006L306.768 202.312ZM288.006 140.7C296.63 149.938 302.38 159.165 305.453 169.116C308.524 179.062 308.962 189.863 306.768 202.312L310.707 203.006C312.989 190.061 312.569 178.602 309.275 167.936C305.982 157.274 299.859 147.536 290.931 137.97L288.006 140.7ZM157.772 98.5386C199.818 94.5123 256.604 100.643 287.894 140.569L291.043 138.101C258.419 96.4741 199.741 90.5014 157.39 94.5569L157.772 98.5386ZM127.62 60.3259L155.987 97.7558L159.175 95.3397L130.808 57.9098L127.62 60.3259ZM38.3213 47.9988L128.928 61.0973L129.5 57.1384L38.8936 44.04L38.3213 47.9988Z" fill="#D2D2D2" mask="url(#path-6-inside-1)"/>
<path fill-rule="evenodd" clip-rule="evenodd" d="M332.126 268.144C330.648 276.072 325.188 282.251 318.198 284.998L316.439 294.435L307.11 301.079L310.265 305.858L305.6 309.18L308.755 313.959L304.091 317.281L307.245 322.061L305.718 330.252L296.373 336.986L288.381 335.496L285.384 330.839L294.743 280.625C289.213 275.544 286.345 267.814 287.822 259.887C290.103 247.653 301.869 239.584 314.103 241.864C326.337 244.144 334.406 255.91 332.126 268.144ZM310.459 261.409C307.581 260.873 305.682 258.104 306.218 255.226C306.755 252.347 309.523 250.449 312.402 250.985C315.281 251.522 317.179 254.29 316.643 257.169C316.106 260.047 313.338 261.946 310.459 261.409Z" fill="#827CFF"/>
<path fill-rule="evenodd" clip-rule="evenodd" d="M352.406 227.037C357.854 232.982 359.511 241.06 357.506 248.298L363.992 255.375L363.696 266.824L369.411 267.175L369.263 272.899L374.978 273.251L374.83 278.975L380.546 279.326L386.175 285.469L385.941 296.985L379.947 302.478L374.424 302.074L339.916 264.416C332.531 265.783 324.628 263.429 319.181 257.484C310.773 248.309 311.395 234.055 320.57 225.647C329.745 217.24 343.999 217.862 352.406 227.037ZM334.001 240.306C331.842 242.284 328.488 242.138 326.51 239.979C324.532 237.82 324.678 234.466 326.837 232.488C328.996 230.51 332.35 230.656 334.328 232.815C336.306 234.974 336.16 238.328 334.001 240.306Z" fill="#ACACAC"/>
<path fill-rule="evenodd" clip-rule="evenodd" d="M349.498 215.305C357.237 217.572 362.835 223.626 364.865 230.857L374.077 233.555L379.749 243.504L384.821 240.847L387.657 245.821L392.729 243.164L395.566 248.138L400.638 245.48L408.634 247.823L414.394 257.798L412.108 265.599L407.174 268.113L358.157 253.753C352.546 258.744 344.566 260.82 336.827 258.553C324.885 255.054 318.039 242.536 321.538 230.594C325.037 218.651 337.555 211.806 349.498 215.305ZM340.617 236.184C339.794 238.994 336.848 240.604 334.038 239.781C331.228 238.958 329.618 236.012 330.441 233.202C331.264 230.392 334.21 228.782 337.02 229.605C339.83 230.428 341.44 233.373 340.617 236.184Z" fill="#9DC7CB"/>
<path d="M290.814 252.209C285.364 249.231 280.771 244.566 277.907 238.525C270.695 223.311 277.181 205.131 292.395 197.918C307.609 190.706 325.789 197.192 333.002 212.406C337.223 221.31 336.752 231.231 332.584 239.374M306.126 255.951C309.453 255.88 312.81 255.26 316.07 254.045" stroke="#3F3D4B" stroke-width="2"/>
<path d="M284.652 211.104C319.305 226.572 316.299 193.234 294.109 183.504C273.261 174.361 205.203 176.038 209.49 155.137C209.49 155.137 126.788 177.843 164.144 199.421C201.5 221 250 195.635 284.652 211.104Z" fill="#EEEEEE"/>
<path d="M163.5 200C200.856 221.579 250 195.636 284.652 211.104C319.304 226.572 316.299 193.235 294.109 183.504C273.26 174.361 203 175.5 210 155.5" stroke="#D2D2D2" stroke-width="2"/>
<path d="M760.821 733.922L739.06 754.415C738.906 754.257 738.728 754.072 738.528 753.862C737.749 753.047 736.628 751.855 735.265 750.351C732.537 747.341 728.841 743.085 724.967 738.098C717.195 728.09 708.809 715.268 705.994 703.723C702.737 690.366 704.394 674.747 707.458 661.469C710.523 648.186 714.955 637.411 717.11 633.781C717.676 632.827 718.282 631.728 718.917 630.574L718.993 630.436C719.609 629.318 720.253 628.146 720.93 626.975C722.345 624.529 723.868 622.147 725.479 620.36C727.114 618.547 728.685 617.523 730.176 617.444C731.591 617.37 733.302 618.142 735.275 620.857C742.45 630.732 740.566 640.576 739.361 646.871C739.227 647.571 739.102 648.226 738.998 648.833C738.837 649.776 738.517 651.14 738.116 652.849C736.073 661.552 731.927 679.22 735.932 695.986C738.066 704.918 744.525 714.611 750.355 721.998C753.283 725.709 756.08 728.871 758.145 731.105C759.177 732.222 760.027 733.109 760.621 733.717C760.691 733.789 760.758 733.857 760.821 733.922Z" fill="#EEEEEE" stroke="#D2D2D2" stroke-width="2"/>
<path d="M778.087 713.694L760.204 732.833C760.171 732.799 760.136 732.763 760.1 732.727C759.567 732.177 758.798 731.373 757.86 730.358C755.982 728.327 753.43 725.454 750.731 722.088C745.31 715.326 739.388 706.685 737.068 698.919C732.573 683.873 738.51 666.033 746.216 651.15C752.998 638.051 761.028 627.466 764.095 623.423C764.501 622.889 764.819 622.469 765.037 622.172C767.333 619.045 769.489 618.212 771.273 618.489C773.144 618.779 775.045 620.345 776.649 622.98C779.841 628.226 781.348 636.913 779.147 644.065C778.048 647.638 776.014 651.062 773.652 654.601C772.974 655.618 772.265 656.648 771.547 657.692C769.794 660.241 767.981 662.875 766.396 665.619C761.875 673.446 759.032 682.439 763.69 694.272C765.524 698.929 769.335 703.975 772.62 707.804C774.274 709.731 775.814 711.374 776.942 712.535C777.397 713.004 777.785 713.394 778.087 713.694Z" fill="#EEEEEE" stroke="#D2D2D2" stroke-width="2"/>
<path d="M788.559 689.314C789.548 689.961 790.52 691.265 791.28 692.529C791.619 693.093 791.899 693.619 792.102 694.022L776.474 704.23C776.167 703.993 775.742 703.66 775.232 703.244C774.129 702.347 772.63 701.07 771.04 699.549C767.828 696.475 764.377 692.523 762.979 688.765C760.535 682.195 762.353 675.041 765.426 668.616C767.783 663.688 770.793 659.349 773.009 656.154C773.683 655.182 774.284 654.316 774.77 653.572C777.534 649.344 780.067 647.457 782.149 646.967C784.147 646.498 785.981 647.263 787.566 649.027C789.169 650.811 790.432 653.548 791.133 656.711C791.83 659.863 791.951 663.356 791.342 666.597C790.369 671.785 787.815 674.813 785.727 677.291C785.211 677.903 784.723 678.481 784.295 679.05C783.239 680.452 782.396 682.02 783.057 683.888C783.367 684.764 783.979 685.611 784.868 686.478C785.76 687.346 786.975 688.278 788.559 689.314Z" fill="#EEEEEE" stroke="#D2D2D2" stroke-width="2"/>
<mask id="path-17-inside-2" fill="white">
<path fill-rule="evenodd" clip-rule="evenodd" d="M952.573 805.404L878.692 735.742C861.298 705.74 827.336 677.64 800.969 672.834C797.519 672.205 771.196 704.817 764.325 725.758C762.889 730.135 756.193 738.579 746.839 743.688C721.231 739.77 691.361 724.559 690.023 698.173C689.321 684.334 696.591 666.115 696.591 666.115C707.542 639.712 680.036 621.919 673.292 645.396C673.292 645.396 660.266 674.838 660.117 695.97C659.936 721.755 669.229 739.581 689.669 755.197C727.974 790.079 785.908 786.425 826.843 775.408C826.843 775.408 878.69 809.5 914.001 858.5C928.985 879.293 952.573 805.404 952.573 805.404Z"/>
</mask>
<path fill-rule="evenodd" clip-rule="evenodd" d="M952.573 805.404L878.692 735.742C861.298 705.74 827.336 677.64 800.969 672.834C797.519 672.205 771.196 704.817 764.325 725.758C762.889 730.135 756.193 738.579 746.839 743.688C721.231 739.77 691.361 724.559 690.023 698.173C689.321 684.334 696.591 666.115 696.591 666.115C707.542 639.712 680.036 621.919 673.292 645.396C673.292 645.396 660.266 674.838 660.117 695.97C659.936 721.755 669.229 739.581 689.669 755.197C727.974 790.079 785.908 786.425 826.843 775.408C826.843 775.408 878.69 809.5 914.001 858.5C928.985 879.293 952.573 805.404 952.573 805.404Z" fill="#EEEEEE"/>
<path d="M878.692 735.742L876.962 736.745L877.108 736.998L877.32 737.197L878.692 735.742ZM952.573 805.404L954.479 806.012L954.862 804.813L953.945 803.949L952.573 805.404ZM800.969 672.834L800.61 674.801L800.61 674.801L800.969 672.834ZM764.325 725.758L762.425 725.134L764.325 725.758ZM746.839 743.688L746.536 745.665L747.204 745.768L747.797 745.444L746.839 743.688ZM690.023 698.173L688.025 698.274L690.023 698.173ZM696.591 666.115L694.744 665.349L694.739 665.361L694.734 665.374L696.591 666.115ZM673.292 645.396L675.121 646.205L675.176 646.08L675.214 645.948L673.292 645.396ZM660.117 695.97L658.117 695.956L660.117 695.97ZM689.669 755.197L691.015 753.718L690.952 753.66L690.883 753.608L689.669 755.197ZM826.843 775.408L827.942 773.737L827.191 773.244L826.323 773.477L826.843 775.408ZM914.001 858.5L915.624 857.331L914.001 858.5ZM877.32 737.197L951.201 806.859L953.945 803.949L880.064 734.287L877.32 737.197ZM800.61 674.801C813.332 677.12 828.107 685.125 841.932 696.39C855.729 707.633 868.401 721.978 876.962 736.745L880.423 734.739C871.59 719.504 858.583 704.799 844.459 693.289C830.362 681.802 814.973 673.353 801.327 670.866L800.61 674.801ZM766.225 726.381C769.558 716.223 777.7 703.043 785.541 692.393C789.444 687.09 793.224 682.48 796.22 679.254C797.723 677.634 798.992 676.404 799.954 675.614C800.441 675.215 800.794 674.974 801.022 674.85C801.362 674.665 801.127 674.895 800.61 674.801L801.327 670.866C800.38 670.693 799.534 671.105 799.106 671.339C798.566 671.633 797.994 672.049 797.417 672.522C796.253 673.477 794.845 674.856 793.288 676.532C790.163 679.898 786.286 684.632 782.319 690.021C774.418 700.755 765.963 714.352 762.425 725.134L766.225 726.381ZM747.797 745.444C752.695 742.768 756.877 739.234 760.025 735.8C763.135 732.409 765.38 728.957 766.225 726.381L762.425 725.134C761.834 726.936 760.013 729.894 757.077 733.097C754.179 736.257 750.336 739.499 745.88 741.933L747.797 745.444ZM688.025 698.274C688.736 712.282 697.031 723.182 708.182 730.994C719.323 738.799 733.5 743.671 746.536 745.665L747.141 741.712C734.569 739.788 721.007 735.095 710.477 727.718C699.957 720.348 692.648 710.45 692.02 698.072L688.025 698.274ZM696.591 666.115C694.734 665.374 694.733 665.374 694.733 665.374C694.733 665.375 694.733 665.375 694.733 665.376C694.733 665.376 694.732 665.378 694.731 665.379C694.73 665.382 694.729 665.386 694.727 665.391C694.723 665.401 694.717 665.416 694.709 665.435C694.694 665.473 694.673 665.528 694.645 665.599C694.59 665.743 694.509 665.952 694.408 666.221C694.206 666.76 693.919 667.541 693.578 668.52C692.896 670.476 691.995 673.229 691.115 676.424C689.37 682.766 687.658 691.029 688.025 698.274L692.02 698.072C691.686 691.478 693.258 683.712 694.972 677.485C695.823 674.395 696.695 671.728 697.355 669.836C697.684 668.891 697.96 668.14 698.152 667.628C698.248 667.373 698.324 667.177 698.374 667.046C698.4 666.981 698.419 666.932 698.431 666.9C698.438 666.884 698.442 666.872 698.445 666.865C698.447 666.861 698.448 666.859 698.448 666.857C698.449 666.857 698.449 666.856 698.449 666.856C698.449 666.856 698.449 666.856 698.449 666.856C698.449 666.856 698.449 666.856 696.591 666.115ZM675.214 645.948C676.788 640.47 679.436 637.829 682.001 636.896C684.574 635.96 687.599 636.545 690.369 638.644C695.889 642.829 699.924 652.859 694.744 665.349L698.439 666.881C704.209 652.967 699.966 640.9 692.785 635.457C689.204 632.742 684.773 631.631 680.634 633.137C676.486 634.645 673.168 638.584 671.37 644.844L675.214 645.948ZM662.117 695.984C662.189 685.741 665.4 673.341 668.661 663.381C670.283 658.427 671.901 654.125 673.114 651.063C673.72 649.532 674.224 648.313 674.575 647.479C674.751 647.062 674.888 646.741 674.981 646.525C675.028 646.418 675.063 646.337 675.087 646.283C675.099 646.256 675.107 646.236 675.113 646.223C675.116 646.217 675.118 646.212 675.119 646.209C675.12 646.207 675.12 646.206 675.121 646.206C675.121 646.205 675.121 646.205 675.121 646.205C675.121 646.205 675.121 646.205 673.292 645.396C671.463 644.587 671.463 644.587 671.462 644.588C671.462 644.588 671.462 644.589 671.462 644.589C671.461 644.59 671.46 644.592 671.46 644.594C671.458 644.598 671.455 644.604 671.452 644.612C671.445 644.628 671.435 644.65 671.422 644.68C671.396 644.739 671.359 644.825 671.31 644.938C671.212 645.165 671.069 645.497 670.889 645.926C670.527 646.784 670.012 648.03 669.395 649.59C668.16 652.709 666.513 657.088 664.86 662.136C661.571 672.18 658.194 685.067 658.117 695.956L662.117 695.984ZM690.883 753.608C680.841 745.936 673.634 737.796 668.946 728.496C664.26 719.201 662.028 708.624 662.117 695.984L658.117 695.956C658.025 709.101 660.349 720.329 665.374 730.297C670.397 740.261 678.057 748.842 688.455 756.786L690.883 753.608ZM826.323 773.477C785.536 784.454 728.521 787.872 691.015 753.718L688.322 756.676C727.426 792.285 786.28 788.396 827.363 777.34L826.323 773.477ZM915.624 857.331C897.837 832.649 875.915 811.756 858.47 797.05C849.741 789.692 842.12 783.871 836.677 779.887C833.956 777.895 831.778 776.361 830.277 775.324C829.527 774.805 828.946 774.411 828.552 774.145C828.354 774.012 828.203 773.911 828.101 773.843C828.05 773.809 828.011 773.783 827.984 773.765C827.971 773.756 827.961 773.75 827.954 773.745C827.95 773.743 827.947 773.741 827.946 773.74C827.945 773.739 827.944 773.738 827.943 773.738C827.942 773.738 827.942 773.737 826.843 775.408C825.744 777.08 825.744 777.079 825.744 777.08C825.745 777.08 825.745 777.08 825.746 777.08C825.747 777.081 825.749 777.082 825.752 777.084C825.757 777.088 825.766 777.094 825.778 777.101C825.801 777.117 825.837 777.141 825.885 777.173C825.981 777.237 826.126 777.333 826.317 777.462C826.698 777.719 827.266 778.105 828.003 778.614C829.476 779.633 831.624 781.145 834.315 783.115C839.697 787.054 847.244 792.819 855.892 800.108C873.198 814.698 894.854 835.351 912.378 859.669L915.624 857.331ZM952.573 805.404C950.668 804.796 950.668 804.796 950.668 804.796C950.668 804.797 950.668 804.797 950.667 804.798C950.667 804.8 950.666 804.803 950.664 804.807C950.662 804.816 950.658 804.828 950.652 804.845C950.641 804.879 950.625 804.931 950.603 804.999C950.558 805.135 950.492 805.339 950.405 805.604C950.231 806.134 949.972 806.911 949.637 807.894C948.968 809.86 947.994 812.648 946.778 815.93C944.344 822.501 940.953 831.018 937.11 838.87C933.231 846.793 929.013 853.78 924.99 857.509C922.972 859.379 921.281 860.169 919.931 860.188C918.72 860.206 917.26 859.602 915.624 857.331L912.378 859.669C914.488 862.596 917.043 864.231 919.99 864.188C922.798 864.147 925.408 862.575 927.709 860.442C932.323 856.166 936.811 848.579 940.702 840.629C944.629 832.607 948.072 823.952 950.529 817.319C951.759 813.999 952.745 811.177 953.424 809.183C953.763 808.186 954.026 807.396 954.204 806.854C954.294 806.583 954.362 806.374 954.408 806.232C954.431 806.161 954.448 806.107 954.46 806.07C954.466 806.051 954.471 806.037 954.474 806.028C954.475 806.023 954.476 806.019 954.477 806.017C954.478 806.015 954.478 806.014 954.478 806.014C954.478 806.013 954.479 806.012 952.573 805.404Z" fill="#D2D2D2" mask="url(#path-17-inside-2)"/>
<rect x="560.377" y="606.888" width="172.182" height="51.4938" rx="2.51562" transform="rotate(26.3633 560.377 606.888)" fill="#7F7EF5"/>
<ellipse cx="571.835" cy="641.75" rx="18.5056" ry="18.1033" transform="rotate(26.3633 571.835 641.75)" fill="#5954C3"/>
<line x1="606.166" y1="646.683" x2="643.719" y2="665.295" stroke="white" stroke-width="3.14453" stroke-linecap="round"/>
<line x1="601.164" y1="656.776" x2="668.274" y2="690.037" stroke="white" stroke-width="3.14453" stroke-linecap="round"/>
<line x1="595.447" y1="668.311" x2="662.558" y2="701.571" stroke="white" stroke-width="3.14453" stroke-linecap="round"/>
<path d="M682.459 683.63C645.713 674.153 654.232 706.523 677.733 712.42C699.814 717.961 766.641 704.966 765.896 726.288C765.896 726.288 843.658 690.119 803.229 675.067C762.799 660.015 719.204 693.107 682.459 683.63Z" fill="#EEEEEE"/>
<path d="M803.768 674.389C763.338 659.337 719.205 693.107 682.459 683.63C645.714 674.153 654.232 706.523 677.734 712.42C699.815 717.961 768.902 705.129 765.333 726.016" stroke="#D2D2D2" stroke-width="2"/>
<rect x="379" y="331" width="300" height="65" rx="8" fill="#5B5964"/>
<rect x="383.5" y="335.5" width="290" height="55" rx="6.5" stroke="#4D4B57" stroke-width="3"/>
<line x1="429.062" y1="362.062" x2="579.059" y2="362.994" stroke="white" stroke-width="20" stroke-linecap="round"/>
<circle cx="629" cy="363" r="10" fill="white"/>
<rect x="379" y="406" width="300" height="65" rx="8" fill="#5B5964"/>
<rect x="383.5" y="410.5" width="290" height="55" rx="6.5" stroke="#4D4B57" stroke-width="3"/>
<line x1="429.062" y1="437.062" x2="579.059" y2="437.994" stroke="white" stroke-width="20" stroke-linecap="round"/>
<circle cx="629" cy="438" r="10" fill="white"/>
<rect x="379" y="481" width="300" height="65" rx="8" fill="#5B5964"/>
<rect x="383.5" y="486.5" width="290" height="55" rx="6.5" stroke="#4D4B57" stroke-width="3"/>
<line x1="429.062" y1="512.062" x2="579.059" y2="512.994" stroke="white" stroke-width="20" stroke-linecap="round"/>
<circle cx="629" cy="513" r="10" fill="white"/>
</svg>
