<svg width="40" height="37" viewBox="0 0 40 37" fill="none" xmlns="http://www.w3.org/2000/svg">
<mask id="mask0" mask-type="alpha" maskUnits="userSpaceOnUse" x="0" y="0" width="40" height="37">
<path fill-rule="evenodd" clip-rule="evenodd" d="M0 0H40V37H0V0Z" fill="white"/>
</mask>
<g mask="url(#mask0)">
<path fill-rule="evenodd" clip-rule="evenodd" d="M21.3154 0.64444L39.7433 27.9068V27.9091C39.8361 28.0465 39.9054 28.198 39.9485 28.3571C40.168 29.1704 39.6657 30.0023 38.8261 30.215L20.3943 36.9512C20.1334 37.0165 19.86 37.0165 19.599 36.9512L1.1736 30.215C1.09621 30.1955 1.02064 30.1703 0.947525 30.1398C0.864395 30.105 0.784439 30.0633 0.708511 30.0149C-0.0167086 29.5531 -0.218003 28.6093 0.25795 27.9068L18.6909 0.64444C19.2688 -0.214813 20.734 -0.214813 21.3154 0.64444ZM19.999 12.6288C23.4306 12.6292 26.2125 15.3258 26.2117 18.6516C26.2113 21.9777 23.429 24.6736 19.9975 24.6732C16.567 24.6729 13.7859 21.9782 13.7847 18.6531C13.7863 15.3273 16.5674 12.6315 19.999 12.6288ZM19.999 30.8712C13.8132 30.8712 7.23854 29.136 7.23854 25.9143C7.23854 23.9774 9.61391 22.5775 12.8515 21.7683C12.9389 21.9555 13.034 22.1391 13.1366 22.3186C13.2847 22.5777 13.4483 22.8284 13.6264 23.0692C10.4608 23.7884 8.66103 24.97 8.66103 25.9143C8.66103 26.3343 9.02309 26.8024 9.70119 27.2554C9.74745 27.1275 9.81606 27.0078 9.90419 26.9026C10.5968 26.0392 12.6975 25.3291 15.659 24.9753C18.2877 26.6775 21.715 26.6775 24.3438 24.9753C27.2942 25.3277 29.3914 26.0338 30.0923 26.8924C30.1375 26.9453 30.1776 27.002 30.2124 27.0618C30.2484 27.1237 30.2786 27.1888 30.3023 27.2561C30.9812 26.8031 31.3424 26.3312 31.3424 25.9143C31.3424 24.97 29.5418 23.7884 26.3775 23.0685C26.6795 22.661 26.9389 22.2251 27.1513 21.7676C30.3904 22.5767 32.7661 23.9774 32.7661 25.9143C32.7677 29.136 26.1882 30.8712 19.999 30.8712Z" fill="#5C50CA"/>
</g>
</svg>
