<svg width="20" height="18" viewBox="0 0 20 18" fill="none" xmlns="http://www.w3.org/2000/svg">
<line x1="5.52447" y1="7.58246" x2="9.58736" y2="11.6453" stroke="#E77E55" stroke-width="1.5"/>
<line x1="18.5245" y1="1.64312" x2="8.93653" y2="11.2311" stroke="#E77E55" stroke-width="1.5"/>
<path fill-rule="evenodd" clip-rule="evenodd" d="M16.4941 8.61279C16.4941 12.4788 13.3601 15.6128 9.49414 15.6128C5.62815 15.6128 2.49414 12.4788 2.49414 8.61279C2.49414 4.7468 5.62815 1.61279 9.49414 1.61279C10.9026 1.61279 12.214 2.02879 13.312 2.74463L14.3918 1.66481C13.0074 0.687134 11.3179 0.112793 9.49414 0.112793C4.79972 0.112793 0.994141 3.91837 0.994141 8.61279C0.994141 13.3072 4.79972 17.1128 9.49414 17.1128C14.1886 17.1128 17.9941 13.3072 17.9941 8.61279C17.9941 7.97362 17.9236 7.35092 17.7899 6.75207L16.4733 8.06862C16.4871 8.2482 16.4941 8.42968 16.4941 8.61279Z" fill="#E77E55"/>
</svg>
