<svg width="916" height="846" viewBox="0 0 916 846" fill="none" xmlns="http://www.w3.org/2000/svg">
<path fill-rule="evenodd" clip-rule="evenodd" d="M408.565 691.231C573.17 695.72 697.865 632.036 756.285 479.221C784.015 406.684 758.134 336.255 706.598 278.113C631.374 210.956 523.509 166.103 438.565 163.786C273.96 159.297 168.213 157.867 148.597 416.987C142.869 492.65 169.423 562.609 215.968 616.327C267.672 661.186 335.467 689.237 408.565 691.231Z" fill="#C0DBDE"/>
<path fill-rule="evenodd" clip-rule="evenodd" d="M408.739 690.915C573.344 695.405 698.039 631.72 756.459 478.905C784.189 406.368 758.308 335.939 706.772 277.797C777.318 340.778 819.156 423.376 786.459 508.905C728.039 661.72 603.344 725.405 438.739 720.915C350.479 718.508 269.951 678.113 216.142 616.012C267.846 660.87 335.641 688.921 408.739 690.915ZM216.142 616.012C151.416 559.856 111.906 477.36 118.771 386.671C138.387 127.551 244.133 128.981 408.739 133.47C505.783 136.117 632.745 194.282 706.772 277.797C631.548 210.64 523.683 165.787 438.739 163.47C274.133 158.981 168.387 157.551 148.771 416.671C143.043 492.334 169.597 562.293 216.142 616.012Z" fill="#D8E9EA"/>
<path d="M182.929 108.888L207.802 92.3077C207.927 92.4897 208.071 92.7016 208.234 92.9419C208.866 93.8752 209.772 95.2373 210.866 96.9479C213.054 100.37 215.989 105.183 218.977 110.746C224.974 121.908 231.106 135.949 231.957 147.802C232.942 161.515 228.706 176.639 223.472 189.221C218.237 201.808 212.071 211.693 209.342 214.913C208.624 215.76 207.843 216.742 207.025 217.774L206.926 217.899C206.133 218.898 205.303 219.946 204.44 220.987C202.637 223.164 200.739 225.259 198.853 226.751C196.938 228.267 195.219 229.015 193.736 228.844C192.329 228.681 190.769 227.635 189.277 224.63C183.847 213.696 187.346 204.304 189.583 198.298C189.831 197.63 190.064 197.005 190.268 196.424C190.584 195.521 191.127 194.23 191.807 192.612C195.271 184.37 202.303 167.64 201.148 150.441C200.533 141.279 195.78 130.645 191.262 122.389C188.993 118.242 186.762 114.659 185.099 112.112C184.267 110.838 183.576 109.822 183.093 109.124C183.035 109.041 182.981 108.962 182.929 108.888Z" fill="#EEEEEE" stroke="#D2D2D2" stroke-width="2"/>
<path d="M162.534 125.956L183.356 110.064C183.383 110.103 183.411 110.144 183.44 110.186C183.875 110.817 184.499 111.738 185.255 112.895C186.768 115.211 188.805 118.469 190.905 122.238C195.125 129.809 199.523 139.315 200.517 147.359C202.442 162.944 193.615 179.545 183.537 192.936C174.667 204.722 164.984 213.821 161.286 217.296C160.798 217.755 160.414 218.116 160.15 218.372C157.365 221.073 155.099 221.536 153.387 220.965C151.59 220.367 149.977 218.507 148.835 215.641C146.561 209.936 146.523 201.12 149.885 194.434C151.564 191.094 154.14 188.057 157.058 184.962C157.897 184.072 158.767 183.175 159.65 182.265C161.803 180.044 164.029 177.748 166.049 175.307C171.812 168.342 176.114 159.949 173.492 147.505C172.461 142.608 169.544 136.998 166.942 132.674C165.633 130.498 164.388 128.622 163.469 127.289C163.099 126.751 162.781 126.302 162.534 125.956Z" fill="#EEEEEE" stroke="#D2D2D2" stroke-width="2"/>
<path d="M173.275 153.053C174.59 159.938 171.604 166.69 167.504 172.513C164.359 176.979 160.668 180.756 157.95 183.537C157.124 184.383 156.387 185.136 155.783 185.789C152.354 189.498 149.542 190.936 147.407 191.072C145.359 191.202 143.678 190.142 142.409 188.139C141.126 186.112 140.336 183.203 140.173 179.968C140.01 176.744 140.473 173.279 141.613 170.185C143.438 165.232 146.46 162.671 148.933 160.576C149.543 160.059 150.12 159.57 150.637 159.081C151.913 157.874 153.005 156.469 152.664 154.517C152.505 153.601 152.042 152.664 151.31 151.661C150.575 150.656 149.533 149.535 148.143 148.249C147.276 147.446 146.536 145.999 145.996 144.626C145.756 144.013 145.568 143.448 145.435 143.017L162.545 135.556C162.808 135.841 163.172 136.24 163.606 136.735C164.543 137.803 165.809 139.312 167.123 141.077C169.778 144.644 172.522 149.115 173.275 153.053Z" fill="#EEEEEE" stroke="#D2D2D2" stroke-width="2"/>
<mask id="path-6-inside-1" fill="white">
<path fill-rule="evenodd" clip-rule="evenodd" d="M-3.00147 -4.31598C30.9973 26.1841 73.4983 88.1839 73.4983 88.1839C80.0006 119.184 107.965 153.299 133.163 162.432C136.459 163.627 167.849 135.858 178.113 116.354C180.594 111.64 190.916 102.736 203.205 100.256C226.048 111.383 249.461 133.074 246.78 155.935C245.166 169.697 234.961 186.45 234.961 186.45C219.764 210.66 243.92 232.787 254.482 210.762C254.482 210.762 272.232 183.903 275.9 163.091C280.376 137.696 274.183 118.57 256.63 99.7655C224.673 58.9902 166.942 52.9386 124.743 56.9795L80.0006 -10.3162L-3.00147 -4.31598Z"/>
</mask>
<path fill-rule="evenodd" clip-rule="evenodd" d="M-3.00147 -4.31598C30.9973 26.1841 73.4983 88.1839 73.4983 88.1839C80.0006 119.184 107.965 153.299 133.163 162.432C136.459 163.627 167.849 135.858 178.113 116.354C180.594 111.64 190.916 102.736 203.205 100.256C226.048 111.383 249.461 133.074 246.78 155.935C245.166 169.697 234.961 186.45 234.961 186.45C219.764 210.66 243.92 232.787 254.482 210.762C254.482 210.762 272.232 183.903 275.9 163.091C280.376 137.696 274.183 118.57 256.63 99.7655C224.673 58.9902 166.942 52.9386 124.743 56.9795L80.0006 -10.3162L-3.00147 -4.31598Z" fill="#EEEEEE"/>
<path d="M73.4983 88.1839L75.4557 87.7733L75.3737 87.3825L75.1479 87.0531L73.4983 88.1839ZM-3.00147 -4.31598L-3.14567 -6.31077L-7.84172 -5.9713L-4.33701 -2.82724L-3.00147 -4.31598ZM133.163 162.432L133.844 160.551L133.844 160.551L133.163 162.432ZM178.113 116.354L179.883 117.286L179.883 117.286L178.113 116.354ZM203.205 100.256L204.08 98.4583L203.472 98.162L202.809 98.2959L203.205 100.256ZM246.78 155.935L248.766 156.168L248.766 156.168L246.78 155.935ZM234.961 186.45L236.655 187.514L236.662 187.502L236.669 187.491L234.961 186.45ZM254.482 210.762L252.814 209.659L252.738 209.774L252.679 209.897L254.482 210.762ZM275.9 163.091L273.931 162.744L273.931 162.744L275.9 163.091ZM256.63 99.7655L255.056 100.999L255.109 101.067L255.168 101.13L256.63 99.7655ZM124.743 56.9795L123.078 58.0868L123.741 59.0846L124.934 58.9704L124.743 56.9795ZM80.0006 -10.3162L81.6661 -11.4235L81.0201 -12.3951L79.8564 -12.311L80.0006 -10.3162ZM73.4983 88.1839C75.1479 87.0531 75.1477 87.0527 75.1473 87.0521C75.147 87.0516 75.1464 87.0508 75.1457 87.0498C75.1443 87.0477 75.1422 87.0448 75.1395 87.0408C75.1342 87.033 75.1262 87.0214 75.1157 87.0062C75.0947 86.9756 75.0636 86.9303 75.0224 86.8705C74.94 86.751 74.8177 86.5737 74.657 86.3416C74.3356 85.8774 73.8604 85.1937 73.2441 84.3133C72.0115 82.5525 70.2138 80.005 67.9509 76.8534C63.4254 70.5507 57.0367 61.829 49.5824 52.1511C34.6969 32.825 15.4787 9.57564 -1.66593 -5.80472L-4.33701 -2.82724C12.5171 12.2924 31.5488 35.293 46.4135 54.5919C53.8343 64.2264 60.1958 72.9109 64.7017 79.1864C66.9545 82.3238 68.7428 84.8582 69.9673 86.6073C70.5795 87.4818 71.0507 88.1599 71.3684 88.6187C71.5273 88.8481 71.6478 89.0228 71.7283 89.1397C71.7686 89.1982 71.7989 89.2423 71.8191 89.2715C71.8291 89.2862 71.8366 89.2971 71.8416 89.3043C71.8441 89.3079 71.8459 89.3106 71.8471 89.3124C71.8477 89.3132 71.8481 89.3138 71.8484 89.3142C71.8486 89.3146 71.8487 89.3147 73.4983 88.1839ZM133.844 160.551C121.708 156.153 108.696 145.632 97.8749 132.25C87.0685 118.887 78.6267 102.891 75.4557 87.7733L71.5409 88.5945C74.8722 104.477 83.6637 121.038 94.7646 134.766C105.85 148.475 119.419 159.578 132.481 164.312L133.844 160.551ZM176.344 115.423C171.364 124.884 161.14 136.522 151.634 145.717C146.902 150.295 142.406 154.211 138.915 156.893C137.163 158.239 135.707 159.24 134.626 159.859C134.08 160.171 133.692 160.35 133.446 160.435C133.08 160.561 133.351 160.373 133.844 160.551L132.481 164.312C133.387 164.64 134.289 164.375 134.75 164.216C135.331 164.016 135.965 163.701 136.613 163.331C137.92 162.583 139.538 161.459 141.352 160.065C144.994 157.267 149.606 153.245 154.416 148.592C163.995 139.326 174.598 127.328 179.883 117.286L176.344 115.423ZM202.809 98.2959C196.332 99.6031 190.425 102.588 185.828 105.834C181.283 109.042 177.794 112.666 176.344 115.423L179.883 117.286C180.913 115.328 183.826 112.143 188.135 109.101C192.391 106.097 197.789 103.39 203.6 102.217L202.809 98.2959ZM248.766 156.168C250.198 143.962 244.644 132.282 236.076 122.386C227.492 112.471 215.694 104.115 204.08 98.4583L202.329 102.054C213.559 107.524 224.889 115.576 233.052 125.004C241.231 134.451 246.043 145.047 244.794 155.702L248.766 156.168ZM234.961 186.45C236.669 187.491 236.669 187.491 236.67 187.49C236.67 187.49 236.67 187.49 236.67 187.489C236.671 187.488 236.672 187.487 236.672 187.486C236.674 187.483 236.676 187.479 236.679 187.475C236.685 187.465 236.693 187.452 236.703 187.434C236.724 187.399 236.755 187.349 236.794 187.283C236.873 187.151 236.987 186.958 237.132 186.71C237.421 186.212 237.834 185.49 238.333 184.581C239.332 182.766 240.679 180.201 242.078 177.198C244.857 171.235 247.922 163.373 248.766 156.168L244.794 155.702C244.025 162.26 241.18 169.655 238.453 175.509C237.099 178.414 235.794 180.898 234.828 182.654C234.346 183.531 233.949 184.225 233.674 184.698C233.537 184.934 233.43 185.115 233.358 185.235C233.322 185.295 233.295 185.34 233.278 185.37C233.269 185.384 233.262 185.395 233.258 185.402C233.256 185.405 233.255 185.407 233.254 185.409C233.253 185.41 233.253 185.41 233.253 185.41C233.253 185.41 233.253 185.41 233.253 185.41C233.253 185.41 233.253 185.41 234.961 186.45ZM252.679 209.897C250.214 215.037 247.162 217.2 244.478 217.692C241.785 218.187 238.9 217.105 236.519 214.574C231.773 209.528 229.466 198.965 236.655 187.514L233.267 185.387C225.259 198.145 227.432 210.751 233.605 217.314C236.684 220.588 240.868 222.422 245.2 221.627C249.541 220.83 253.469 217.5 256.286 211.627L252.679 209.897ZM273.931 162.744C272.152 172.832 266.921 184.523 262.045 193.801C259.62 198.415 257.308 202.387 255.602 205.204C254.75 206.612 254.05 207.731 253.564 208.495C253.321 208.877 253.132 209.17 253.005 209.367C252.941 209.465 252.892 209.54 252.86 209.589C252.844 209.613 252.832 209.632 252.824 209.643C252.82 209.649 252.818 209.654 252.816 209.656C252.815 209.658 252.814 209.659 252.814 209.659C252.814 209.659 252.814 209.659 252.814 209.66C252.814 209.66 252.814 209.659 254.482 210.762C256.151 211.865 256.151 211.864 256.151 211.864C256.151 211.864 256.152 211.863 256.152 211.863C256.153 211.862 256.154 211.86 256.155 211.858C256.158 211.854 256.161 211.849 256.166 211.842C256.175 211.828 256.189 211.807 256.206 211.78C256.242 211.726 256.293 211.647 256.36 211.544C256.494 211.337 256.69 211.033 256.94 210.64C257.44 209.854 258.155 208.711 259.024 207.276C260.761 204.407 263.115 200.363 265.586 195.661C270.503 186.306 275.98 174.162 277.87 163.438L273.931 162.744ZM255.168 101.13C263.792 110.369 269.542 119.596 272.615 129.547C275.687 139.493 276.125 150.295 273.931 162.744L277.87 163.438C280.152 150.492 279.731 139.033 276.437 128.367C273.144 117.705 267.021 107.967 258.092 98.4008L255.168 101.13ZM124.934 58.9704C166.98 54.9441 223.766 61.0747 255.056 100.999L258.204 98.5317C225.581 56.9058 166.903 50.9331 124.553 54.9886L124.934 58.9704ZM78.3351 -9.20883L123.078 58.0868L126.409 55.8722L81.6661 -11.4235L78.3351 -9.20883ZM-2.85727 -2.32118L80.1448 -8.32136L79.8564 -12.311L-3.14567 -6.31077L-2.85727 -2.32118Z" fill="#D2D2D2" mask="url(#path-6-inside-1)"/>
<path fill-rule="evenodd" clip-rule="evenodd" d="M299.288 228.575C297.81 236.503 292.35 242.682 285.36 245.429L283.601 254.866L274.273 261.51L277.427 266.29L272.763 269.612L275.917 274.391L271.253 277.713L274.407 282.492L272.88 290.683L263.535 297.417L255.543 295.927L252.546 291.271L261.905 241.057C256.375 235.976 253.507 228.245 254.985 220.318C257.265 208.084 269.031 200.015 281.265 202.295C293.499 204.575 301.568 216.341 299.288 228.575ZM277.621 221.841C274.743 221.304 272.844 218.536 273.381 215.657C273.917 212.778 276.686 210.88 279.564 211.416C282.443 211.953 284.341 214.721 283.805 217.6C283.268 220.479 280.5 222.377 277.621 221.841Z" fill="#827CFF"/>
<path fill-rule="evenodd" clip-rule="evenodd" d="M319.568 187.468C325.016 193.413 326.673 201.491 324.668 208.729L331.154 215.806L330.858 227.255L336.573 227.606L336.425 233.331L342.141 233.682L341.993 239.406L347.708 239.757L353.337 245.9L353.103 257.416L347.109 262.909L341.586 262.506L307.078 224.848C299.693 226.214 291.791 223.86 286.343 217.915C277.935 208.74 278.557 194.486 287.732 186.079C296.907 177.671 311.161 178.293 319.568 187.468ZM301.163 200.737C299.004 202.715 295.65 202.569 293.672 200.41C291.694 198.251 291.84 194.898 293.999 192.919C296.158 190.941 299.512 191.087 301.49 193.246C303.468 195.405 303.322 198.759 301.163 200.737Z" fill="#ACACAC"/>
<path fill-rule="evenodd" clip-rule="evenodd" d="M316.66 175.736C324.399 178.003 329.997 184.057 332.027 191.288L341.239 193.987L346.911 203.936L351.983 201.278L354.819 206.252L359.891 203.595L362.728 208.569L367.8 205.912L375.796 208.254L381.556 218.229L379.27 226.031L374.336 228.544L325.319 214.184C319.708 219.176 311.728 221.251 303.989 218.984C292.047 215.486 285.202 202.968 288.7 191.025C292.199 179.082 304.717 172.237 316.66 175.736ZM307.779 196.615C306.956 199.425 304.011 201.035 301.201 200.212C298.39 199.389 296.78 196.444 297.603 193.634C298.426 190.823 301.372 189.213 304.182 190.036C306.992 190.859 308.602 193.805 307.779 196.615Z" fill="#9DC7CB"/>
<path d="M257.977 212.64C252.526 209.662 247.933 204.997 245.069 198.956C237.857 183.742 244.343 165.562 259.557 158.349C274.771 151.137 292.951 157.623 300.164 172.837C304.385 181.742 303.914 191.662 299.746 199.805M273.288 216.383C276.615 216.311 279.972 215.691 283.232 214.477" stroke="#3F3D4B" stroke-width="2"/>
<path d="M251.814 171.535C286.467 187.003 283.461 153.666 261.271 143.935C240.423 134.792 172.365 136.469 176.652 115.569C176.652 115.569 93.9499 138.274 131.306 159.853C168.662 181.431 217.162 156.067 251.814 171.535Z" fill="#EEEEEE"/>
<path d="M130.662 160.431C168.018 182.01 217.162 156.067 251.814 171.535C286.466 187.003 283.461 153.666 261.271 143.935C240.422 134.792 170.162 135.931 177.162 115.931" stroke="#D2D2D2" stroke-width="2"/>
<path d="M757.982 694.351L736.22 714.845C736.066 714.686 735.888 714.501 735.688 714.292C734.909 713.477 733.788 712.285 732.425 710.78C729.697 707.771 726.001 703.514 722.128 698.527C714.355 688.52 705.969 675.697 703.154 664.152C699.898 650.795 701.554 635.177 704.618 621.898C707.683 608.615 712.115 597.84 714.27 594.21C714.836 593.256 715.442 592.157 716.078 591.003L716.154 590.864C716.769 589.747 717.414 588.575 718.09 587.405C719.506 584.958 721.028 582.576 722.639 580.79C724.274 578.977 725.845 577.952 727.336 577.874C728.751 577.8 730.462 578.572 732.435 581.286C739.61 591.162 737.726 601.005 736.521 607.301C736.387 608 736.262 608.656 736.158 609.263C735.997 610.206 735.677 611.569 735.276 613.278C733.234 621.982 729.088 639.65 733.092 656.415C735.226 665.347 741.685 675.04 747.515 682.428C750.444 686.139 753.24 689.3 755.305 691.534C756.337 692.652 757.188 693.538 757.781 694.146C757.851 694.218 757.918 694.287 757.982 694.351Z" fill="#EEEEEE" stroke="#D2D2D2" stroke-width="2"/>
<path d="M775.247 674.123L757.364 693.263C757.331 693.228 757.296 693.193 757.26 693.156C756.727 692.607 755.958 691.803 755.02 690.787C753.142 688.756 750.59 685.883 747.892 682.517C742.47 675.755 736.548 667.115 734.228 659.349C729.733 644.303 735.67 626.463 743.376 611.58C750.158 598.48 758.188 587.895 761.255 583.853C761.661 583.318 761.979 582.898 762.197 582.602C764.493 579.474 766.65 578.641 768.433 578.918C770.304 579.209 772.205 580.774 773.809 583.409C777.001 588.655 778.508 597.342 776.307 604.495C775.208 608.068 773.175 611.491 770.813 615.03C770.134 616.047 769.425 617.077 768.707 618.121C766.954 620.67 765.141 623.305 763.557 626.048C759.035 633.876 756.192 642.869 760.85 654.701C762.684 659.359 766.495 664.404 769.78 668.234C771.434 670.161 772.975 671.804 774.102 672.965C774.557 673.433 774.945 673.823 775.247 674.123Z" fill="#EEEEEE" stroke="#D2D2D2" stroke-width="2"/>
<path d="M760.139 649.195C757.695 642.625 759.514 635.47 762.586 629.045C764.943 624.117 767.953 619.778 770.169 616.583C770.843 615.612 771.444 614.746 771.931 614.001C774.694 609.774 777.227 607.887 779.309 607.397C781.307 606.927 783.141 607.692 784.726 609.456C786.329 611.24 787.592 613.977 788.293 617.14C788.991 620.292 789.111 623.785 788.503 627.026C787.529 632.214 784.975 635.243 782.887 637.72C782.371 638.332 781.884 638.91 781.455 639.479C780.399 640.882 779.556 642.449 780.217 644.317C780.527 645.193 781.139 646.041 782.028 646.907C782.92 647.776 784.135 648.707 785.719 649.744C786.708 650.391 787.68 651.695 788.44 652.958C788.779 653.522 789.059 654.048 789.262 654.451L773.635 664.659C773.327 664.422 772.903 664.089 772.392 663.674C771.289 662.777 769.79 661.5 768.2 659.978C764.988 656.904 761.537 652.952 760.139 649.195Z" fill="#EEEEEE" stroke="#D2D2D2" stroke-width="2"/>
<mask id="path-17-inside-2" fill="white">
<path fill-rule="evenodd" clip-rule="evenodd" d="M949.732 765.834L875.851 696.172C858.457 666.17 824.495 638.069 798.128 633.263C794.678 632.634 768.355 665.246 761.484 686.187C760.048 690.564 753.351 699.009 743.998 704.118C718.39 700.199 688.52 684.988 687.182 658.602C686.48 644.764 693.75 626.544 693.75 626.544C704.701 600.141 677.195 582.349 670.451 605.826C670.451 605.826 657.425 635.267 657.276 656.4C657.095 682.184 666.388 700.01 686.828 715.627C725.133 750.508 783.067 746.855 824.002 735.838C824.002 735.838 875.849 769.929 911.16 818.929C926.144 839.722 949.732 765.834 949.732 765.834Z"/>
</mask>
<path fill-rule="evenodd" clip-rule="evenodd" d="M949.732 765.834L875.851 696.172C858.457 666.17 824.495 638.069 798.128 633.263C794.678 632.634 768.355 665.246 761.484 686.187C760.048 690.564 753.351 699.009 743.998 704.118C718.39 700.199 688.52 684.988 687.182 658.602C686.48 644.764 693.75 626.544 693.75 626.544C704.701 600.141 677.195 582.349 670.451 605.826C670.451 605.826 657.425 635.267 657.276 656.4C657.095 682.184 666.388 700.01 686.828 715.627C725.133 750.508 783.067 746.855 824.002 735.838C824.002 735.838 875.849 769.929 911.16 818.929C926.144 839.722 949.732 765.834 949.732 765.834Z" fill="#EEEEEE"/>
<path d="M875.851 696.172L874.121 697.175L874.267 697.427L874.479 697.627L875.851 696.172ZM949.732 765.834L951.637 766.442L952.02 765.242L951.104 764.378L949.732 765.834ZM798.128 633.263L797.769 635.231L797.769 635.231L798.128 633.263ZM761.484 686.187L759.584 685.564L759.584 685.564L761.484 686.187ZM743.998 704.118L743.695 706.095L744.363 706.197L744.956 705.873L743.998 704.118ZM687.182 658.602L685.184 658.704L685.184 658.704L687.182 658.602ZM693.75 626.544L691.903 625.778L691.898 625.791L691.893 625.803L693.75 626.544ZM670.451 605.826L672.28 606.635L672.335 606.51L672.373 606.378L670.451 605.826ZM657.276 656.4L655.276 656.386L655.276 656.386L657.276 656.4ZM686.828 715.627L688.174 714.148L688.11 714.09L688.042 714.037L686.828 715.627ZM824.002 735.838L825.101 734.167L824.35 733.673L823.482 733.907L824.002 735.838ZM911.16 818.929L912.782 817.76L911.16 818.929ZM874.479 697.627L948.36 767.289L951.104 764.378L877.223 694.717L874.479 697.627ZM797.769 635.231C810.491 637.55 825.266 645.554 839.091 656.819C852.888 668.062 865.559 682.408 874.121 697.175L877.582 695.169C868.749 679.934 855.742 665.228 841.618 653.719C827.521 642.232 812.131 633.783 798.486 631.296L797.769 635.231ZM763.384 686.811C766.717 676.652 774.859 663.473 782.7 652.822C786.603 647.519 790.383 642.91 793.379 639.683C794.882 638.064 796.15 636.834 797.113 636.044C797.6 635.645 797.953 635.404 798.181 635.28C798.521 635.094 798.286 635.325 797.769 635.231L798.486 631.296C797.538 631.123 796.693 631.535 796.265 631.768C795.725 632.063 795.153 632.478 794.576 632.952C793.412 633.907 792.004 635.285 790.447 636.962C787.322 640.328 783.445 645.062 779.478 650.451C771.577 661.184 763.122 674.781 759.584 685.564L763.384 686.811ZM744.956 705.873C749.854 703.198 754.036 699.663 757.184 696.23C760.294 692.838 762.539 689.387 763.384 686.811L759.584 685.564C758.993 687.365 757.172 690.324 754.236 693.526C751.338 696.687 747.495 699.929 743.039 702.363L744.956 705.873ZM685.184 658.704C685.895 672.711 694.19 683.611 705.341 691.423C716.482 699.228 730.659 704.1 743.695 706.095L744.3 702.141C731.728 700.217 718.166 695.524 707.636 688.147C697.116 680.778 689.807 670.879 689.179 658.501L685.184 658.704ZM693.75 626.544C691.893 625.803 691.892 625.803 691.892 625.804C691.892 625.804 691.892 625.805 691.892 625.805C691.891 625.806 691.891 625.807 691.89 625.809C691.889 625.811 691.888 625.816 691.886 625.821C691.881 625.831 691.876 625.846 691.868 625.865C691.853 625.902 691.832 625.957 691.804 626.029C691.749 626.172 691.668 626.381 691.567 626.65C691.364 627.189 691.078 627.97 690.736 628.949C690.055 630.906 689.154 633.659 688.274 636.853C686.529 643.196 684.817 651.459 685.184 658.704L689.179 658.501C688.845 651.907 690.417 644.141 692.131 637.915C692.982 634.824 693.854 632.158 694.514 630.266C694.843 629.32 695.119 628.57 695.311 628.058C695.407 627.802 695.483 627.606 695.533 627.476C695.559 627.41 695.578 627.361 695.59 627.33C695.597 627.314 695.601 627.302 695.604 627.295C695.606 627.291 695.607 627.288 695.607 627.287C695.607 627.286 695.608 627.286 695.608 627.285C695.608 627.285 695.608 627.285 695.608 627.285C695.608 627.285 695.608 627.286 693.75 626.544ZM672.373 606.378C673.947 600.9 676.595 598.258 679.16 597.325C681.733 596.389 684.758 596.974 687.528 599.074C693.048 603.258 697.083 613.289 691.903 625.778L695.598 627.311C701.368 613.397 697.125 601.329 689.944 595.886C686.363 593.171 681.932 592.06 677.793 593.566C673.645 595.075 670.327 599.013 668.528 605.273L672.373 606.378ZM659.276 656.414C659.348 646.17 662.559 633.77 665.82 623.81C667.442 618.856 669.06 614.554 670.273 611.492C670.879 609.962 671.382 608.743 671.734 607.908C671.91 607.491 672.047 607.17 672.14 606.955C672.187 606.847 672.222 606.766 672.246 606.712C672.257 606.685 672.266 606.665 672.272 606.652C672.275 606.646 672.277 606.641 672.278 606.638C672.279 606.637 672.279 606.636 672.279 606.635C672.28 606.635 672.28 606.635 672.28 606.635C672.28 606.635 672.28 606.635 670.451 605.826C668.622 605.016 668.622 605.017 668.621 605.017C668.621 605.018 668.621 605.018 668.621 605.019C668.62 605.02 668.619 605.022 668.618 605.024C668.617 605.028 668.614 605.034 668.611 605.042C668.604 605.057 668.594 605.08 668.581 605.109C668.555 605.168 668.517 605.255 668.469 605.368C668.371 605.594 668.228 605.926 668.048 606.356C667.686 607.214 667.171 608.46 666.554 610.02C665.319 613.138 663.671 617.518 662.019 622.566C658.73 632.61 655.353 645.496 655.276 656.386L659.276 656.414ZM688.042 714.037C678 706.365 670.793 698.226 666.105 688.926C661.419 679.631 659.187 669.054 659.276 656.414L655.276 656.386C655.184 669.53 657.508 680.758 662.533 690.727C667.556 700.69 675.216 709.272 685.613 717.216L688.042 714.037ZM823.482 733.907C782.695 744.883 725.68 748.302 688.174 714.148L685.481 717.105C724.585 752.715 783.439 748.826 824.522 737.769L823.482 733.907ZM912.782 817.76C894.996 793.078 873.073 772.186 855.629 757.48C846.9 750.121 839.279 744.301 833.836 740.316C831.114 738.324 828.937 736.791 827.436 735.753C826.686 735.235 826.105 734.84 825.71 734.574C825.513 734.441 825.362 734.34 825.26 734.272C825.209 734.238 825.17 734.212 825.143 734.195C825.13 734.186 825.12 734.179 825.113 734.175C825.109 734.172 825.106 734.17 825.104 734.169C825.103 734.168 825.103 734.168 825.102 734.168C825.101 734.167 825.101 734.167 824.002 735.838C822.903 737.509 822.903 737.509 822.903 737.509C822.904 737.509 822.904 737.509 822.905 737.51C822.906 737.511 822.908 737.512 822.91 737.514C822.916 737.517 822.925 737.523 822.936 737.531C822.96 737.546 822.996 737.57 823.044 737.602C823.14 737.666 823.284 737.763 823.475 737.891C823.857 738.149 824.425 738.534 825.161 739.044C826.634 740.062 828.783 741.575 831.474 743.544C836.856 747.484 844.403 753.248 853.05 760.538C870.357 775.127 892.013 795.781 909.537 820.099L912.782 817.76ZM949.732 765.834C947.827 765.225 947.827 765.225 947.827 765.226C947.827 765.226 947.826 765.227 947.826 765.228C947.826 765.23 947.825 765.233 947.823 765.237C947.821 765.245 947.817 765.258 947.811 765.275C947.8 765.309 947.784 765.36 947.761 765.428C947.717 765.565 947.651 765.768 947.564 766.033C947.389 766.563 947.131 767.34 946.796 768.323C946.127 770.289 945.153 773.077 943.937 776.359C941.503 782.93 938.112 791.448 934.269 799.299C930.39 807.222 926.172 814.209 922.148 817.938C920.131 819.809 918.44 820.598 917.09 820.618C915.879 820.636 914.419 820.031 912.782 817.76L909.537 820.099C911.647 823.026 914.202 824.661 917.149 824.618C919.957 824.576 922.567 823.005 924.868 820.872C929.482 816.595 933.97 809.008 937.861 801.058C941.788 793.037 945.231 784.381 947.688 777.748C948.918 774.428 949.904 771.606 950.583 769.613C950.922 768.616 951.185 767.826 951.363 767.283C951.453 767.012 951.521 766.803 951.567 766.661C951.59 766.59 951.607 766.536 951.619 766.499C951.625 766.481 951.629 766.467 951.633 766.457C951.634 766.452 951.635 766.449 951.636 766.446C951.636 766.445 951.637 766.444 951.637 766.443C951.637 766.442 951.637 766.442 949.732 765.834Z" fill="#D2D2D2" mask="url(#path-17-inside-2)"/>
<rect x="557.537" y="567.317" width="172.182" height="51.4938" rx="2.51562" transform="rotate(26.3633 557.537 567.317)" fill="#7F7EF5"/>
<ellipse cx="568.995" cy="602.18" rx="18.5056" ry="18.1033" transform="rotate(26.3633 568.995 602.18)" fill="#5954C3"/>
<line x1="603.326" y1="607.113" x2="640.879" y2="625.725" stroke="white" stroke-width="3.14453" stroke-linecap="round"/>
<line x1="598.324" y1="617.206" x2="665.435" y2="650.466" stroke="white" stroke-width="3.14453" stroke-linecap="round"/>
<line x1="592.607" y1="628.74" x2="659.718" y2="662.001" stroke="white" stroke-width="3.14453" stroke-linecap="round"/>
<path d="M679.619 644.059C642.873 634.582 651.392 666.952 674.893 672.849C696.974 678.39 763.801 665.395 763.057 686.718C763.057 686.718 840.819 650.548 800.389 635.496C759.959 620.445 716.364 653.537 679.619 644.059Z" fill="#EEEEEE"/>
<path d="M800.928 634.818C760.498 619.767 716.365 653.537 679.619 644.059C642.874 634.582 651.393 666.952 674.894 672.849C696.975 678.39 766.063 665.558 762.493 686.445" stroke="#D2D2D2" stroke-width="2"/>
<rect x="308" y="291.431" width="300" height="65" rx="8" fill="#5B5964"/>
<rect x="312.5" y="295.931" width="290" height="55" rx="6.5" stroke="#4D4B57" stroke-width="3"/>
<line x1="358.062" y1="322.494" x2="508.059" y2="323.425" stroke="white" stroke-width="20" stroke-linecap="round"/>
<circle cx="558" cy="323.431" r="10" fill="white"/>
<rect x="308" y="366.431" width="300" height="65" rx="8" fill="#5B5964"/>
<rect x="312.5" y="370.931" width="290" height="55" rx="6.5" stroke="#4D4B57" stroke-width="3"/>
<line x1="358.062" y1="397.494" x2="508.059" y2="398.425" stroke="white" stroke-width="20" stroke-linecap="round"/>
<circle cx="558" cy="398.431" r="10" fill="white"/>
<rect x="308" y="441.431" width="300" height="65" rx="8" fill="#5B5964"/>
<rect x="312.5" y="446.931" width="290" height="55" rx="6.5" stroke="#4D4B57" stroke-width="3"/>
<line x1="358.062" y1="472.494" x2="508.059" y2="473.425" stroke="white" stroke-width="20" stroke-linecap="round"/>
<circle cx="558" cy="473.431" r="10" fill="white"/>
</svg>
