<svg width="90" height="90" viewBox="0 0 90 90" fill="none" xmlns="http://www.w3.org/2000/svg">
<path d="M45 90C33.0653 90 21.6193 85.2589 13.1802 76.8198C4.74106 68.3807 0 56.9347 0 45C0 33.0653 4.74106 21.6193 13.1802 13.1802C21.6193 4.74106 33.0653 0 45 0C56.9347 0 68.3807 4.74106 76.8198 13.1802C85.2589 21.6193 90 33.0653 90 45C90 56.9347 85.2589 68.3807 76.8198 76.8198C68.3807 85.2589 56.9347 90 45 90ZM45 81C54.5478 81 63.7045 77.2072 70.4558 70.4558C77.2072 63.7045 81 54.5478 81 45C81 35.4522 77.2072 26.2955 70.4558 19.5442C63.7045 12.7928 54.5478 9 45 9C35.4522 9 26.2955 12.7928 19.5442 19.5442C12.7928 26.2955 9 35.4522 9 45C9 54.5478 12.7928 63.7045 19.5442 70.4558C26.2955 77.2072 35.4522 81 45 81ZM34.65 41.85L40.5 47.655L55.35 32.805C56.216 32.0735 57.3262 31.6957 58.4587 31.7473C59.5912 31.7989 60.6624 32.2761 61.4583 33.0833C62.2542 33.8906 62.7161 34.9685 62.7516 36.1016C62.7872 37.2347 62.3937 38.3394 61.65 39.195L43.65 57.195C42.8088 58.0195 41.6779 58.4814 40.5 58.4814C39.3221 58.4814 38.1912 58.0195 37.35 57.195L28.35 48.195C27.6063 47.3394 27.2128 46.2347 27.2484 45.1016C27.2839 43.9685 27.7458 42.8906 28.5417 42.0833C29.3376 41.2761 30.4088 40.7989 31.5413 40.7473C32.6738 40.6957 33.784 41.0735 34.65 41.805V41.85Z" fill="#36B87B"/>
</svg>
