<svg width="19" height="17" viewBox="0 0 19 17" fill="none" xmlns="http://www.w3.org/2000/svg">
<line x1="4.53033" y1="7.46967" x2="8.59321" y2="11.5326" stroke="#5c50ca" stroke-width="1.5"/>
<line x1="17.5303" y1="1.53033" x2="7.94239" y2="11.1183" stroke="#5c50ca" stroke-width="1.5"/>
<path fill-rule="evenodd" clip-rule="evenodd" d="M15.5 8.5C15.5 12.366 12.3662 15.5 8.5 15.5C4.63379 15.5 1.5 12.366 1.5 8.5C1.5 4.63403 4.63379 1.5 8.5 1.5C9.90869 1.5 11.2197 1.91602 12.3179 2.63184L13.3975 1.552C12.0132 0.574219 10.3237 0 8.5 0C3.80566 0 0 3.80566 0 8.5C0 13.1943 3.80566 17 8.5 17C13.1943 17 17 13.1943 17 8.5C17 7.86084 16.9297 7.23828 16.7959 6.6394L15.479 7.95581C15.4927 8.13525 15.5 8.31689 15.5 8.5Z" fill="#5c50ca"/>
</svg>
