<svg width="969" height="832" viewBox="0 0 969 832" fill="none" xmlns="http://www.w3.org/2000/svg">
<path opacity="0.4" d="M900.633 513.158C842.213 665.973 717.518 729.658 552.913 725.168C388.308 720.678 250.596 584.058 262.945 420.924C282.561 161.804 388.308 163.234 552.913 167.723C717.518 172.213 968.195 336.428 900.633 513.158Z" fill="#E77E55"/>
<path opacity="0.4" d="M930.633 543.158C872.213 695.973 747.518 759.658 582.913 755.168C418.308 750.678 280.596 614.058 292.945 450.924C312.561 191.804 418.308 193.234 582.913 197.723C747.518 202.213 998.195 366.428 930.633 543.158Z" fill="#E77E55"/>
<path d="M215.767 147.457L240.64 130.876C240.764 131.058 240.909 131.27 241.072 131.51C241.704 132.443 242.61 133.805 243.704 135.516C245.892 138.938 248.827 143.751 251.815 149.314C257.812 160.477 263.944 174.517 264.795 186.37C265.78 200.083 261.544 215.207 256.31 227.789C251.075 240.376 244.909 250.261 242.179 253.481C241.462 254.328 240.681 255.31 239.863 256.342L239.765 256.466C238.972 257.466 238.141 258.514 237.278 259.555C235.475 261.732 233.577 263.827 231.691 265.32C229.776 266.835 228.056 267.583 226.574 267.412C225.166 267.249 223.607 266.203 222.115 263.198C216.685 252.264 220.183 242.872 222.421 236.866C222.669 236.199 222.902 235.573 223.106 234.992C223.422 234.089 223.964 232.798 224.645 231.18C228.109 222.938 235.141 206.208 233.986 189.009C233.371 179.847 228.618 169.213 224.1 160.958C221.831 156.81 219.6 153.227 217.937 150.68C217.105 149.406 216.414 148.391 215.931 147.692C215.873 147.609 215.818 147.531 215.767 147.457Z" fill="#EEEEEE" stroke="#D2D2D2" stroke-width="2"/>
<path d="M195.372 164.524L216.194 148.632C216.221 148.672 216.249 148.713 216.278 148.755C216.713 149.386 217.337 150.307 218.093 151.464C219.606 153.779 221.643 157.037 223.743 160.806C227.962 168.377 232.361 177.884 233.355 185.928C235.279 201.513 226.453 218.114 216.375 231.504C207.504 243.29 197.822 252.389 194.124 255.864C193.636 256.324 193.251 256.685 192.987 256.941C190.203 259.642 187.937 260.104 186.225 259.534C184.428 258.936 182.815 257.075 181.673 254.21C179.399 248.505 179.361 239.689 182.723 233.002C184.402 229.663 186.978 226.626 189.896 223.53C190.735 222.641 191.605 221.743 192.488 220.833C194.641 218.612 196.867 216.316 198.887 213.875C204.65 206.911 208.952 198.517 206.33 186.074C205.299 181.176 202.382 175.566 199.78 171.243C198.471 169.067 197.226 167.19 196.307 165.857C195.937 165.32 195.619 164.87 195.372 164.524Z" fill="#EEEEEE" stroke="#D2D2D2" stroke-width="2"/>
<path d="M180.981 186.818C180.114 186.015 179.373 184.567 178.834 183.194C178.594 182.582 178.406 182.017 178.273 181.586L195.383 174.124C195.646 174.409 196.009 174.809 196.444 175.303C197.381 176.371 198.647 177.881 199.961 179.646C202.616 183.212 205.36 187.684 206.112 191.622C207.428 198.507 204.442 205.259 200.342 211.081C197.196 215.548 193.506 219.325 190.788 222.106C189.961 222.951 189.225 223.705 188.621 224.358C185.192 228.066 182.38 229.505 180.245 229.641C178.197 229.771 176.516 228.711 175.247 226.708C173.964 224.681 173.174 221.772 173.011 218.536C172.848 215.312 173.311 211.848 174.451 208.754C176.276 203.801 179.298 201.24 181.771 199.145C182.381 198.628 182.958 198.139 183.475 197.649C184.75 196.442 185.843 195.037 185.502 193.085C185.343 192.17 184.88 191.232 184.148 190.23C183.413 189.224 182.37 188.104 180.981 186.818Z" fill="#EEEEEE" stroke="#D2D2D2" stroke-width="2"/>
<mask id="path-6-inside-1" fill="white">
<path fill-rule="evenodd" clip-rule="evenodd" d="M38.6076 45.0194L99.8467 126.019C111.998 158.5 140.803 191.867 166 201C169.297 202.195 200.686 174.426 210.951 154.922C213.7 149.699 226.076 139.332 240.087 138.259C261.62 150.235 282.208 172.414 279.618 194.504C278.004 208.266 267.799 225.019 267.799 225.019C252.601 249.228 276.758 271.355 287.32 249.33C287.32 249.33 305.069 222.471 308.738 201.659C313.214 176.265 307.021 157.139 289.469 138.335C257.512 97.5586 199.78 91.5068 157.581 95.5478L129.214 58.1178L38.6076 45.0194Z"/>
</mask>
<path fill-rule="evenodd" clip-rule="evenodd" d="M38.6076 45.0194L99.8467 126.019C111.998 158.5 140.803 191.867 166 201C169.297 202.195 200.686 174.426 210.951 154.922C213.7 149.699 226.076 139.332 240.087 138.259C261.62 150.235 282.208 172.414 279.618 194.504C278.004 208.266 267.799 225.019 267.799 225.019C252.601 249.228 276.758 271.355 287.32 249.33C287.32 249.33 305.069 222.471 308.738 201.659C313.214 176.265 307.021 157.139 289.469 138.335C257.512 97.5586 199.78 91.5068 157.581 95.5478L129.214 58.1178L38.6076 45.0194Z" fill="#EEEEEE"/>
<path d="M99.8467 126.019L101.72 125.318L101.618 125.045L101.442 124.813L99.8467 126.019ZM38.6076 45.0194L38.8938 43.04L34.0774 42.3437L37.0123 46.2256L38.6076 45.0194ZM166 201L166.682 199.12L166.682 199.12L166 201ZM210.951 154.922L212.721 155.854L212.721 155.854L210.951 154.922ZM240.087 138.259L241.059 136.511L240.533 136.219L239.934 136.265L240.087 138.259ZM279.618 194.504L277.631 194.271L279.618 194.504ZM267.799 225.019L269.493 226.082L269.5 226.071L269.507 226.059L267.799 225.019ZM287.32 249.33L285.651 248.228L285.576 248.342L285.516 248.466L287.32 249.33ZM308.738 201.659L310.708 202.006L308.738 201.659ZM289.469 138.335L287.895 139.569L287.948 139.636L288.007 139.7L289.469 138.335ZM157.581 95.5478L155.987 96.7558L156.661 97.645L157.772 97.5387L157.581 95.5478ZM129.214 58.1178L130.808 56.9098L130.313 56.2558L129.5 56.1384L129.214 58.1178ZM101.442 124.813L40.203 43.8132L37.0123 46.2256L98.2514 127.225L101.442 124.813ZM166.682 199.12C154.524 194.713 141.29 184.359 129.535 170.947C117.805 157.562 107.701 141.305 101.72 125.318L97.9735 126.72C104.144 143.214 114.518 159.881 126.527 173.583C138.512 187.258 152.279 198.154 165.319 202.88L166.682 199.12ZM209.181 153.991C204.202 163.452 193.978 175.09 184.472 184.286C179.739 188.864 175.244 192.779 171.753 195.461C170 196.807 168.545 197.809 167.464 198.427C166.918 198.74 166.529 198.918 166.284 199.003C165.917 199.129 166.188 198.941 166.682 199.12L165.319 202.88C166.225 203.209 167.127 202.943 167.587 202.785C168.169 202.584 168.803 202.27 169.45 201.899C170.757 201.151 172.375 200.027 174.19 198.633C177.832 195.835 182.443 191.813 187.253 187.161C196.833 177.894 207.436 165.896 212.721 155.854L209.181 153.991ZM239.934 136.265C232.502 136.834 225.586 139.854 220.204 143.358C214.88 146.826 210.781 150.951 209.181 153.991L212.721 155.854C213.87 153.671 217.334 150.001 222.387 146.71C227.383 143.457 233.66 140.757 240.239 140.253L239.934 136.265ZM281.604 194.737C282.982 182.989 278.181 171.41 270.486 161.372C262.778 151.318 252.024 142.61 241.059 136.511L239.114 140.007C249.682 145.884 259.989 154.254 267.311 163.806C274.646 173.374 278.844 183.929 277.631 194.271L281.604 194.737ZM267.799 225.019C269.507 226.059 269.507 226.059 269.507 226.059C269.507 226.058 269.508 226.058 269.508 226.057C269.508 226.057 269.509 226.056 269.51 226.054C269.512 226.051 269.514 226.048 269.517 226.043C269.522 226.034 269.531 226.02 269.541 226.003C269.562 225.968 269.593 225.917 269.632 225.851C269.71 225.719 269.824 225.527 269.969 225.278C270.259 224.78 270.672 224.058 271.171 223.15C272.169 221.334 273.517 218.77 274.916 215.767C277.694 209.804 280.759 201.941 281.604 194.737L277.631 194.271C276.862 200.828 274.018 208.223 271.29 214.077C269.936 216.983 268.632 219.467 267.666 221.222C267.184 222.1 266.787 222.794 266.512 223.266C266.374 223.502 266.268 223.683 266.196 223.803C266.16 223.863 266.133 223.909 266.115 223.938C266.106 223.953 266.1 223.963 266.096 223.97C266.094 223.973 266.092 223.976 266.091 223.977C266.091 223.978 266.091 223.978 266.091 223.979C266.091 223.979 266.091 223.979 266.091 223.979C266.091 223.979 266.091 223.978 267.799 225.019ZM285.516 248.466C283.052 253.605 280 255.768 277.316 256.261C274.623 256.755 271.737 255.674 269.356 253.142C264.61 248.096 262.304 237.534 269.493 226.082L266.105 223.955C258.096 236.713 260.269 249.319 266.443 255.883C269.521 259.156 273.706 260.99 278.038 260.195C282.378 259.399 286.307 256.068 289.123 250.195L285.516 248.466ZM306.768 201.312C304.99 211.4 299.758 223.092 294.883 232.369C292.458 236.984 290.145 240.956 288.44 243.773C287.587 245.181 286.887 246.299 286.402 247.063C286.159 247.445 285.97 247.739 285.842 247.935C285.778 248.034 285.73 248.108 285.698 248.157C285.682 248.182 285.67 248.2 285.662 248.212C285.658 248.218 285.655 248.222 285.653 248.225C285.652 248.226 285.652 248.227 285.651 248.227C285.651 248.228 285.651 248.228 285.651 248.228C285.651 248.228 285.651 248.228 287.32 249.33C288.988 250.433 288.989 250.433 288.989 250.432C288.989 250.432 288.989 250.432 288.99 250.431C288.99 250.43 288.991 250.428 288.993 250.427C288.995 250.423 288.999 250.417 289.004 250.41C289.013 250.396 289.026 250.375 289.044 250.348C289.079 250.295 289.131 250.216 289.198 250.112C289.332 249.905 289.528 249.601 289.778 249.208C290.277 248.422 290.993 247.28 291.861 245.844C293.598 242.975 295.953 238.931 298.424 234.23C303.34 224.874 308.817 212.73 310.708 202.006L306.768 201.312ZM288.007 139.7C296.63 148.938 302.38 158.165 305.453 168.116C308.524 178.062 308.962 188.863 306.768 201.312L310.708 202.006C312.989 189.061 312.569 177.602 309.275 166.936C305.982 156.274 299.86 146.536 290.931 136.97L288.007 139.7ZM157.772 97.5387C199.818 93.5123 256.605 99.643 287.895 139.569L291.043 137.101C258.419 95.4742 199.741 89.5014 157.39 93.5569L157.772 97.5387ZM127.62 59.3258L155.987 96.7558L159.175 94.3397L130.808 56.9098L127.62 59.3258ZM38.3215 46.9988L128.928 60.0973L129.5 56.1384L38.8938 43.04L38.3215 46.9988Z" fill="#D2D2D2" mask="url(#path-6-inside-1)"/>
<rect x="280.279" y="151.255" width="134.854" height="182.922" rx="3.81493" transform="rotate(31.6886 280.279 151.255)" fill="#E0DFE5" stroke="#C7C5CD" stroke-width="0.370148"/>
<line x1="282.727" y1="177.966" x2="314.084" y2="197.324" stroke="#AAA7C3" stroke-width="8.96927"/>
<line x1="271.065" y1="196.853" x2="359.477" y2="251.433" stroke="#AAA7C3" stroke-width="8.96927"/>
<line x1="237.493" y1="251.235" x2="325.904" y2="305.815" stroke="#AAA7C3" stroke-width="8.96927"/>
<line x1="225.049" y1="271.394" x2="313.461" y2="325.974" stroke="#AAA7C3" stroke-width="8.96927"/>
<line y1="-4.48463" x2="88.8777" y2="-4.48463" transform="matrix(0.846611 0.532212 -0.53227 0.846575 257.756 218.414)" stroke="#AAA7C3" stroke-width="8.96927"/>
<line x1="249.362" y1="232.013" x2="297.604" y2="261.795" stroke="#AAA7C3" stroke-width="8.96927"/>
<path d="M284.652 210.104C319.305 225.572 316.299 192.234 294.109 182.504C273.261 173.361 205.203 175.038 209.49 154.137C209.49 154.137 126.788 176.843 164.144 198.421C201.5 220 250 194.635 284.652 210.104Z" fill="#EEEEEE"/>
<path d="M163.5 199C200.856 220.579 250 194.636 284.652 210.104C319.304 225.572 316.299 192.234 294.109 182.504C273.26 173.361 203 174.5 210 154.5" stroke="#D2D2D2" stroke-width="2"/>
<rect x="739" y="245" width="168" height="50" rx="2.51562" fill="#7F7EF5"/>
<ellipse cx="764" cy="270.5" rx="18" ry="17.5" fill="#5954C3"/>
<line x1="796.572" y1="259.428" x2="837.428" y2="259.428" stroke="white" stroke-width="3.14453" stroke-linecap="round"/>
<line x1="796.572" y1="270.428" x2="869.428" y2="270.428" stroke="white" stroke-width="3.14453" stroke-linecap="round"/>
<line x1="796.572" y1="283.428" x2="869.428" y2="283.428" stroke="white" stroke-width="3.14453" stroke-linecap="round"/>
<rect x="649" y="171" width="168" height="50" rx="2.51562" fill="#7F7EF5"/>
<ellipse cx="674" cy="196.5" rx="18" ry="17.5" fill="#5954C3"/>
<line x1="706.572" y1="185.428" x2="747.428" y2="185.428" stroke="white" stroke-width="3.14453" stroke-linecap="round"/>
<line x1="706.572" y1="196.428" x2="779.428" y2="196.428" stroke="white" stroke-width="3.14453" stroke-linecap="round"/>
<line x1="706.572" y1="209.428" x2="779.428" y2="209.428" stroke="white" stroke-width="3.14453" stroke-linecap="round"/>
<rect x="403.415" y="313.415" width="351.171" height="230.171" rx="12.8503" fill="white" stroke="#EDEDED" stroke-width="0.829052"/>
<path d="M514.904 579.816L544.693 544.415H613.307L643.096 579.816C644.684 581.703 643.342 584.585 640.875 584.585H517.125C514.658 584.585 513.316 581.703 514.904 579.816Z" fill="white" stroke="#EDEDED" stroke-width="0.829052"/>
<g filter="url(#filter0_i)">
<path d="M419 331.316C419 329.485 420.485 328 422.316 328H735.684C737.515 328 739 329.485 739 331.316V354H419V331.316Z" fill="#B1B0C0"/>
<circle cx="442" cy="340.533" r="3" fill="#60B480"/>
<circle cx="456" cy="340.533" r="3" fill="#DD9B4A"/>
<circle cx="469" cy="340.533" r="3" fill="#C6475B"/>
<path d="M419 354H739V525.684C739 527.515 737.515 529 735.684 529H422.316C420.485 529 419 527.515 419 525.684V354Z" fill="#3E3C49"/>
<line x1="505.233" y1="380.767" x2="637.767" y2="380.767" stroke="#E0DFE5" stroke-width="4.46656" stroke-linecap="round"/>
<line x1="505.233" y1="390.767" x2="563.767" y2="390.767" stroke="#E0DFE5" stroke-width="4.46656" stroke-linecap="round"/>
<line x1="531.233" y1="405.767" x2="609.767" y2="405.767" stroke="#5FB580" stroke-width="4.46656" stroke-linecap="round"/>
<line x1="531.233" y1="418.767" x2="587.767" y2="418.767" stroke="#5FB580" stroke-width="4.46656" stroke-linecap="round"/>
<line x1="531.233" y1="433.767" x2="650.767" y2="433.767" stroke="#5FB580" stroke-width="4.46656" stroke-linecap="round"/>
<line x1="557.233" y1="471.767" x2="676.767" y2="471.767" stroke="#5FB580" stroke-width="4.46656" stroke-linecap="round"/>
<line x1="505.233" y1="484.767" x2="599.767" y2="484.767" stroke="#E0DFE5" stroke-width="4.46656" stroke-linecap="round"/>
<line x1="505.233" y1="497.767" x2="606.767" y2="497.767" stroke="#E0DFE5" stroke-width="4.46656" stroke-linecap="round"/>
<line x1="557.233" y1="447.767" x2="637.767" y2="447.767" stroke="#C6475B" stroke-width="4.46656" stroke-linecap="round"/>
<line x1="557.233" y1="459.767" x2="615.767" y2="459.767" stroke="#C6475B" stroke-width="4.46656" stroke-linecap="round"/>
</g>
<path d="M889.621 574.762C890.726 586.271 890.102 596.109 888.74 611.604L913.604 650.669C913.669 648.714 913.756 645.951 913.853 642.61C914.053 635.748 914.292 626.446 914.451 616.688C914.611 606.929 914.69 596.719 914.571 588.039C914.451 579.328 914.131 572.24 913.509 568.672C909.931 548.156 905.25 532.606 900.432 521.524C895.593 510.395 890.674 503.908 886.71 501.329C884.744 500.05 883.161 499.823 881.97 500.237C880.773 500.652 879.662 501.819 878.88 504.021C877.307 508.45 877.324 516.411 880.091 527.556C885.651 549.95 888.509 563.187 889.621 574.762Z" fill="#EEEEEE" stroke="#D2D2D2" stroke-width="2"/>
<path d="M862.014 618.484L890.412 625.634C890.414 625.536 890.417 625.432 890.42 625.322C890.443 624.321 890.467 622.868 890.468 621.061C890.469 617.448 890.377 612.425 890.002 606.793C889.25 595.493 887.369 581.874 882.912 572.222C880.828 567.71 871.021 548.428 860.724 532.588C855.564 524.649 850.339 517.668 845.943 513.819C843.719 511.871 841.873 510.877 840.469 510.779C839.807 510.734 839.244 510.886 838.74 511.249C838.219 511.624 837.699 512.271 837.235 513.316C833.35 522.061 836.655 532.55 841.818 543.225C843.625 546.96 845.626 550.655 847.58 554.265C848.405 555.788 849.221 557.296 850.011 558.786C852.656 563.77 855.005 568.544 856.25 572.817C858.519 580.603 859.964 592.233 860.845 601.856C861.286 606.68 861.587 611.022 861.777 614.157C861.872 615.725 861.94 616.993 861.984 617.868C861.996 618.102 862.006 618.308 862.014 618.484Z" fill="#EEEEEE" stroke="#D2D2D2" stroke-width="2"/>
<path d="M894.333 655.935C893.959 656.344 893.572 656.714 893.172 657.02L913.233 674.215C916.407 664.717 920.323 655.225 924.399 645.708C925.418 643.327 926.447 640.946 927.477 638.562C930.775 630.928 934.084 623.271 937.12 615.543C945.086 595.264 951.111 574.646 950.018 553.173C949.733 547.568 948.503 544.282 946.955 542.565C945.485 540.933 943.604 540.59 941.495 541.203C939.33 541.831 936.987 543.466 934.909 545.709C932.841 547.941 931.107 550.698 930.123 553.458C929.462 555.315 927.958 560.559 925.879 567.813C925.404 569.469 924.899 571.23 924.367 573.079C921.516 582.995 917.91 595.387 914.069 607.588C910.229 619.785 906.147 631.816 902.342 641.002C900.441 645.592 898.596 649.504 896.872 652.38C896.01 653.817 895.162 655.024 894.333 655.935Z" fill="#EEEEEE" stroke="#D2D2D2" stroke-width="2"/>
<mask id="path-47-inside-2" fill="white">
<path fill-rule="evenodd" clip-rule="evenodd" d="M826.998 733.262C850.299 752.511 871.551 756.421 888.961 750.584C930.892 753.275 970.353 775.816 970.353 775.816L971.059 682.315L916.126 678.262C909.883 646.344 895.178 613.028 884.598 601.134C882.584 598.232 880.684 595.234 878.798 592.256C869.112 576.963 859.775 562.22 836.999 564C818.16 565.473 792.594 572 792.594 572C769.387 586.132 771.999 605 797.999 599.706C797.999 599.706 818.612 594.251 830.999 594C848.545 593.644 855.212 607.339 863.4 624.16C863.909 625.206 864.425 626.264 864.948 627.332C870.565 638.774 876.223 656.024 878.7 663.927C870.727 686.754 854.72 698.277 835.47 680.039C822.638 667.882 816.323 662.456 812.595 659.253C810.476 657.432 809.193 656.329 808.023 655.117C806.227 653.255 804.699 651.134 800.825 645.756C799.703 644.198 798.383 642.367 796.803 640.189C779.972 616.989 738.121 633.365 771.784 656.11C788.696 667.537 793.464 679.449 798.587 692.246C803.661 704.921 809.083 718.464 826.998 733.262Z"/>
</mask>
<path fill-rule="evenodd" clip-rule="evenodd" d="M826.998 733.262C850.299 752.511 871.551 756.421 888.961 750.584C930.892 753.275 970.353 775.816 970.353 775.816L971.059 682.315L916.126 678.262C909.883 646.344 895.178 613.028 884.598 601.134C882.584 598.232 880.684 595.234 878.798 592.256C869.112 576.963 859.775 562.22 836.999 564C818.16 565.473 792.594 572 792.594 572C769.387 586.132 771.999 605 797.999 599.706C797.999 599.706 818.612 594.251 830.999 594C848.545 593.644 855.212 607.339 863.4 624.16C863.909 625.206 864.425 626.264 864.948 627.332C870.565 638.774 876.223 656.024 878.7 663.927C870.727 686.754 854.72 698.277 835.47 680.039C822.638 667.882 816.323 662.456 812.595 659.253C810.476 657.432 809.193 656.329 808.023 655.117C806.227 653.255 804.699 651.134 800.825 645.756C799.703 644.198 798.383 642.367 796.803 640.189C779.972 616.989 738.121 633.365 771.784 656.11C788.696 667.537 793.464 679.449 798.587 692.246C803.661 704.921 809.083 718.464 826.998 733.262Z" fill="#EEEEEE"/>
<path d="M888.961 750.584L888.326 748.688L888.698 748.563L889.089 748.588L888.961 750.584ZM826.998 733.262L828.271 731.72L826.998 733.262ZM970.353 775.816L972.353 775.831L972.327 779.247L969.361 777.552L970.353 775.816ZM971.059 682.315L971.206 680.32L973.073 680.458L973.059 682.33L971.059 682.315ZM916.126 678.262L915.979 680.257L914.457 680.145L914.164 678.646L916.126 678.262ZM884.598 601.134L883.104 602.464L883.024 602.374L882.955 602.275L884.598 601.134ZM878.798 592.256L877.109 593.326L878.798 592.256ZM836.999 564L837.155 565.994L837.155 565.994L836.999 564ZM792.594 572L791.554 570.292L791.81 570.136L792.1 570.062L792.594 572ZM797.999 599.706L798.51 601.639L798.455 601.654L798.398 601.665L797.999 599.706ZM830.999 594L831.039 596L830.999 594ZM863.4 624.16L865.198 623.285L863.4 624.16ZM864.948 627.332L866.744 626.45L864.948 627.332ZM878.7 663.927L880.608 663.329L880.806 663.961L880.588 664.587L878.7 663.927ZM835.47 680.039L834.094 681.491L835.47 680.039ZM812.595 659.253L811.292 660.77L812.595 659.253ZM808.023 655.117L806.584 656.505L808.023 655.117ZM800.825 645.756L799.202 646.925L800.825 645.756ZM796.803 640.189L798.422 639.014L798.422 639.014L796.803 640.189ZM771.784 656.11L770.664 657.767L771.784 656.11ZM798.587 692.246L796.73 692.989L798.587 692.246ZM889.597 752.481C871.351 758.597 849.393 754.356 825.724 734.804L828.271 731.72C851.206 750.665 871.75 754.245 888.326 748.688L889.597 752.481ZM970.353 775.816C969.361 777.552 969.361 777.552 969.361 777.552C969.361 777.552 969.361 777.552 969.36 777.552C969.36 777.552 969.358 777.551 969.356 777.55C969.352 777.548 969.346 777.544 969.338 777.539C969.32 777.529 969.294 777.514 969.258 777.494C969.185 777.453 969.076 777.392 968.93 777.311C968.639 777.15 968.203 776.911 967.631 776.605C966.488 775.993 964.801 775.111 962.645 774.044C958.33 771.909 952.139 769.031 944.646 766.069C929.64 760.137 909.509 753.907 888.833 752.58L889.089 748.588C910.344 749.952 930.91 756.338 946.116 762.349C953.73 765.359 960.024 768.284 964.419 770.459C966.617 771.547 968.341 772.448 969.519 773.079C970.108 773.394 970.561 773.642 970.868 773.812C971.022 773.897 971.139 773.963 971.219 774.008C971.259 774.03 971.289 774.048 971.31 774.059C971.321 774.065 971.329 774.07 971.335 774.073C971.338 774.075 971.34 774.076 971.342 774.077C971.342 774.078 971.343 774.078 971.344 774.078C971.344 774.079 971.345 774.079 970.353 775.816ZM973.059 682.33L972.353 775.831L968.353 775.801L969.059 682.3L973.059 682.33ZM916.273 676.268L971.206 680.32L970.912 684.309L915.979 680.257L916.273 676.268ZM886.093 599.805C891.607 606.005 898.031 617.555 903.833 631.417C909.658 645.331 914.938 661.77 918.089 677.878L914.164 678.646C911.071 662.837 905.877 646.658 900.143 632.961C894.388 619.212 888.169 608.158 883.104 602.464L886.093 599.805ZM882.955 602.275C880.913 599.332 878.991 596.298 877.109 593.326L880.488 591.185C882.378 594.169 884.255 597.132 886.241 599.994L882.955 602.275ZM877.109 593.326C872.228 585.619 867.632 578.395 861.52 573.256C855.523 568.214 848.011 565.145 837.155 565.994L836.843 562.006C848.762 561.075 857.307 564.487 864.094 570.195C870.767 575.805 875.683 583.599 880.488 591.185L877.109 593.326ZM837.155 565.994C827.864 566.72 816.861 568.699 808.139 570.51C803.787 571.414 800.02 572.272 797.343 572.904C796.004 573.22 794.938 573.479 794.208 573.659C793.843 573.749 793.562 573.819 793.373 573.866C793.279 573.89 793.207 573.908 793.159 573.92C793.135 573.926 793.118 573.931 793.106 573.934C793.1 573.935 793.096 573.936 793.093 573.937C793.092 573.937 793.091 573.938 793.09 573.938C793.09 573.938 793.089 573.938 793.089 573.938C793.089 573.938 793.089 573.938 792.594 572C792.1 570.062 792.1 570.062 792.1 570.062C792.1 570.062 792.101 570.062 792.101 570.062C792.102 570.062 792.104 570.061 792.105 570.061C792.109 570.06 792.114 570.059 792.12 570.057C792.133 570.054 792.152 570.049 792.177 570.043C792.228 570.03 792.302 570.011 792.399 569.987C792.594 569.938 792.88 569.866 793.251 569.775C793.993 569.592 795.072 569.33 796.424 569.011C799.129 568.372 802.931 567.506 807.326 566.594C816.096 564.773 827.295 562.752 836.843 562.006L837.155 565.994ZM793.635 573.708C788.002 577.138 784.04 580.795 781.622 584.194C779.183 587.624 778.437 590.605 778.815 592.798C779.17 594.861 780.593 596.658 783.586 597.711C786.656 598.791 791.293 599.03 797.6 597.746L798.398 601.665C791.704 603.028 786.265 602.894 782.258 601.484C778.174 600.047 775.52 597.236 774.873 593.477C774.248 589.849 775.576 585.794 778.362 581.876C781.169 577.929 785.583 573.928 791.554 570.292L793.635 573.708ZM797.999 599.706C797.487 597.772 797.487 597.772 797.488 597.772C797.488 597.772 797.488 597.772 797.489 597.772C797.489 597.771 797.491 597.771 797.492 597.771C797.495 597.77 797.499 597.769 797.504 597.768C797.515 597.765 797.531 597.761 797.551 597.755C797.592 597.745 797.652 597.729 797.73 597.708C797.887 597.668 798.118 597.608 798.415 597.532C799.01 597.381 799.871 597.165 800.942 596.906C803.084 596.387 806.069 595.692 809.446 594.989C816.16 593.592 824.565 592.13 830.958 592L831.039 596C825.045 596.121 816.951 597.513 810.261 598.905C806.937 599.597 803.995 600.282 801.884 600.793C800.829 601.049 799.983 601.261 799.402 601.409C799.111 601.483 798.887 601.541 798.736 601.58C798.661 601.6 798.604 601.614 798.566 601.624C798.547 601.629 798.533 601.633 798.523 601.636C798.519 601.637 798.515 601.638 798.513 601.638C798.512 601.639 798.511 601.639 798.511 601.639C798.511 601.639 798.51 601.639 798.51 601.639C798.51 601.639 798.51 601.639 797.999 599.706ZM830.958 592C840.383 591.809 846.977 595.443 852.202 601.308C857.307 607.04 861.141 614.95 865.198 623.285L861.602 625.035C857.471 616.549 853.877 609.202 849.215 603.969C844.673 598.871 839.16 595.835 831.039 596L830.958 592ZM865.198 623.285C865.708 624.331 866.222 625.386 866.744 626.45L863.153 628.213C862.627 627.142 862.111 626.081 861.602 625.035L865.198 623.285ZM866.744 626.45C872.436 638.048 878.134 655.435 880.608 663.329L876.791 664.525C874.312 656.613 868.693 639.501 863.153 628.213L866.744 626.45ZM836.845 678.587C846.109 687.363 854.063 688.558 860.469 685.57C867.144 682.456 872.891 674.493 876.811 663.268L880.588 664.587C876.536 676.188 870.293 685.4 862.16 689.195C853.756 693.115 844.081 690.953 834.094 681.491L836.845 678.587ZM813.899 657.736C817.646 660.956 823.985 666.404 836.845 678.587L834.094 681.491C821.29 669.361 815 663.956 811.292 660.77L813.899 657.736ZM809.463 653.728C810.554 654.859 811.757 655.896 813.899 657.736L811.292 660.77C809.195 658.968 807.832 657.799 806.584 656.505L809.463 653.728ZM802.448 644.587C806.361 650.019 807.791 651.995 809.463 653.728L806.584 656.505C804.664 654.514 803.038 652.249 799.202 646.925L802.448 644.587ZM798.422 639.014C800.004 641.195 801.326 643.029 802.448 644.587L799.202 646.925C798.08 645.367 796.762 643.538 795.185 641.363L798.422 639.014ZM770.664 657.767C762.099 651.98 757.797 646.258 757.14 641.013C756.453 635.521 759.813 631.377 764.489 629.119C773.678 624.681 789.412 626.594 798.422 639.014L795.185 641.363C787.364 630.583 773.756 629.085 766.228 632.721C762.545 634.5 760.702 637.266 761.109 640.516C761.547 644.014 764.638 648.868 772.904 654.453L770.664 657.767ZM796.73 692.989C791.64 680.272 787.055 668.842 770.664 657.767L772.904 654.453C790.336 666.231 795.289 678.626 800.444 691.502L796.73 692.989ZM825.724 734.804C807.415 719.68 801.841 705.754 796.73 692.989L800.444 691.502C805.482 704.088 810.751 717.248 828.271 731.72L825.724 734.804Z" fill="#D2D2D2" mask="url(#path-47-inside-2)"/>
<circle cx="779.136" cy="615.138" r="16.4818" transform="rotate(20.0743 779.136 615.138)" fill="#4C9EA6"/>
<line x1="1.83131" y1="-1.83131" x2="7.60568" y2="-1.83131" transform="matrix(0.355424 0.934706 -0.948551 0.316624 771.348 634.019)" stroke="#EDEDED" stroke-width="3.66261" stroke-linecap="round"/>
<line x1="1.83131" y1="-1.83131" x2="14.5646" y2="-1.83131" transform="matrix(-0.916851 0.399229 -0.444342 -0.895857 788.809 634.21)" stroke="#EDEDED" stroke-width="3.66261" stroke-linecap="round"/>
<line x1="773.806" y1="613.025" x2="775.931" y2="618.99" stroke="#EDEDED" stroke-width="3.66261" stroke-linecap="round"/>
<line x1="788.039" y1="614.551" x2="776.326" y2="619.994" stroke="#EDEDED" stroke-width="3.66261" stroke-linecap="round"/>
<defs>
<filter id="filter0_i" x="419" y="328" width="320" height="201" filterUnits="userSpaceOnUse" color-interpolation-filters="sRGB">
<feFlood flood-opacity="0" result="BackgroundImageFix"/>
<feBlend mode="normal" in="SourceGraphic" in2="BackgroundImageFix" result="shape"/>
<feColorMatrix in="SourceAlpha" type="matrix" values="0 0 0 0 0 0 0 0 0 0 0 0 0 0 0 0 0 0 127 0" result="hardAlpha"/>
<feOffset/>
<feGaussianBlur stdDeviation="0.829052"/>
<feComposite in2="hardAlpha" operator="arithmetic" k2="-1" k3="1"/>
<feColorMatrix type="matrix" values="0 0 0 0 0.537118 0 0 0 0 0.537118 0 0 0 0 0.537118 0 0 0 0.25 0"/>
<feBlend mode="normal" in2="shape" result="effect1_innerShadow"/>
</filter>
</defs>
</svg>
