<?xml version="1.0" encoding="UTF-8" standalone="no"?>
<svg
   xmlns:dc="http://purl.org/dc/elements/1.1/"
   xmlns:cc="http://creativecommons.org/ns#"
   xmlns:rdf="http://www.w3.org/1999/02/22-rdf-syntax-ns#"
   xmlns:svg="http://www.w3.org/2000/svg"
   xmlns="http://www.w3.org/2000/svg"
   xmlns:sodipodi="http://sodipodi.sourceforge.net/DTD/sodipodi-0.dtd"
   xmlns:inkscape="http://www.inkscape.org/namespaces/inkscape"
   width="935.99561"
   height="720"
   viewBox="0 0 935.99561 720"
   id="svg2"
   version="1.1"
   inkscape:version="0.91 r13725"
   sodipodi:docname="web3hero.svg"
   style="fill:none">
  <metadata
     id="metadata139">
    <rdf:RDF>
      <cc:Work
         rdf:about="">
        <dc:format>image/svg+xml</dc:format>
        <dc:type
           rdf:resource="http://purl.org/dc/dcmitype/StillImage" />
        <dc:title></dc:title>
      </cc:Work>
    </rdf:RDF>
  </metadata>
  <sodipodi:namedview
     pagecolor="#ffffff"
     bordercolor="#666666"
     borderopacity="1"
     objecttolerance="10"
     gridtolerance="10"
     guidetolerance="10"
     inkscape:pageopacity="0"
     inkscape:pageshadow="2"
     inkscape:window-width="764"
     inkscape:window-height="571"
     id="namedview137"
     showgrid="false"
     fit-margin-top="0"
     fit-margin-left="0"
     fit-margin-right="0"
     fit-margin-bottom="0"
     inkscape:zoom="0.80229423"
     inkscape:cx="948.99281"
     inkscape:cy="-91.870431"
     inkscape:window-x="422"
     inkscape:window-y="174"
     inkscape:window-maximized="0"
     inkscape:current-layer="svg2" />
  <path
     d="m 866.5556,453.91098 c -58.42,152.815 -183.115,216.5 -347.72,212.01 -164.605,-4.49 -302.317,-141.11 -289.968,-304.244 19.616,-259.12 125.363,-257.69 289.968,-253.201 164.605,4.49 415.282,168.705 347.72,345.435 z"
     id="path4"
     inkscape:connector-curvature="0"
     style="opacity:0.4;fill:#e77e55" />
  <path
     d="m 896.5556,483.91098 c -58.42,152.815 -183.115,216.5 -347.72,212.01 -164.605,-4.49 -302.317,-141.11 -289.968,-304.244 19.616,-259.12 125.363,-257.69 289.968,-253.201 164.605,4.49 415.282,168.705 347.72,345.435 z"
     id="path6"
     inkscape:connector-curvature="0"
     style="opacity:0.4;fill:#e77e55" />
  <path
     d="m 181.6896,88.20998 24.873,-16.581001 c 0.124,0.182 0.269,0.394 0.432,0.634 0.632,0.933 1.538,2.295 2.632,4.006 2.188,3.422 5.123,8.235001 8.111,13.798001 5.997,11.163 12.129,25.203 12.98,37.056 0.985,13.713 -3.251,28.837 -8.485,41.419 -5.235,12.587 -11.401,22.472 -14.131,25.692 -0.717,0.847 -1.498,1.829 -2.316,2.861 l -0.098,0.124 c -0.793,1 -1.624,2.048 -2.487,3.089 -1.803,2.177 -3.701,4.272 -5.587,5.765 -1.915,1.515 -3.635,2.263 -5.117,2.092 -1.408,-0.163 -2.967,-1.209 -4.459,-4.214 -5.43,-10.934 -1.932,-20.326 0.306,-26.332 0.248,-0.667 0.481,-1.293 0.685,-1.874 0.316,-0.903 0.858,-2.194 1.539,-3.812 3.464,-8.242 10.496,-24.972 9.341,-42.171 -0.615,-9.162 -5.368,-19.796 -9.886,-28.051 -2.269,-4.148 -4.5,-7.731 -6.163,-10.278 -0.832,-1.274 -1.523,-2.289 -2.006,-2.988 -0.058,-0.083 -0.113,-0.161 -0.164,-0.235 z"
     id="path8"
     inkscape:connector-curvature="0"
     style="fill:#eeeeee;stroke:#d2d2d2;stroke-width:2" />
  <path
     d="m 161.2946,105.27698 20.822,-15.892 c 0.027,0.04 0.055,0.081 0.084,0.123 0.435,0.631 1.059,1.552 1.815,2.709 1.513,2.315 3.55,5.573 5.65,9.342 4.219,7.571 8.618,17.078 9.612,25.122 1.924,15.585 -6.902,32.186 -16.98,45.576 -8.871,11.786 -18.553,20.885 -22.251,24.36 -0.488,0.46 -0.873,0.821 -1.137,1.077 -2.784,2.701 -5.05,3.163 -6.762,2.593 -1.797,-0.598 -3.41,-2.459 -4.552,-5.324 -2.274,-5.705 -2.312,-14.521 1.05,-21.208 1.679,-3.339 4.255,-6.376 7.173,-9.472 0.839,-0.889 1.709,-1.787 2.592,-2.697 2.153,-2.221 4.379,-4.517 6.399,-6.958 5.763,-6.964 10.065,-15.358 7.443,-27.801 -1.031,-4.898 -3.948,-10.508 -6.55,-14.831 -1.309,-2.176 -2.554,-4.053 -3.473,-5.386 -0.37,-0.537 -0.688,-0.987 -0.935,-1.333 z"
     id="path10"
     inkscape:connector-curvature="0"
     style="fill:#eeeeee;stroke:#d2d2d2;stroke-width:2" />
  <path
     d="m 146.9036,127.57098 c -0.867,-0.803 -1.608,-2.251 -2.147,-3.624 -0.24,-0.612 -0.428,-1.177 -0.561,-1.608 l 17.11,-7.462 c 0.263,0.285 0.626,0.685 1.061,1.179 0.937,1.068 2.203,2.578 3.517,4.343 2.655,3.566 5.399,8.038 6.151,11.976 1.316,6.885 -1.67,13.637 -5.77,19.459 -3.146,4.467 -6.836,8.244 -9.554,11.025 -0.827,0.845 -1.563,1.599 -2.167,2.252 -3.429,3.708 -6.241,5.147 -8.376,5.283 -2.048,0.13 -3.729,-0.93 -4.998,-2.933 -1.283,-2.027 -2.073,-4.936 -2.236,-8.172 -0.163,-3.224 0.3,-6.688 1.44,-9.782 1.825,-4.953 4.847,-7.514 7.32,-9.609 0.61,-0.517 1.187,-1.006 1.704,-1.496 1.275,-1.207 2.368,-2.612 2.027,-4.564 -0.159,-0.915 -0.622,-1.853 -1.354,-2.855 -0.735,-1.006 -1.778,-2.126 -3.167,-3.412 z"
     id="path12"
     inkscape:connector-curvature="0"
     style="fill:#eeeeee;stroke:#d2d2d2;stroke-width:2" />
  <mask
     id="path-6-inside-1"
     fill="white">
    <path
       d="M 38.6076,45.0194 99.8467,126.019 C 111.998,158.5 140.803,191.867 166,201 c 3.297,1.195 34.686,-26.574 44.951,-46.078 2.749,-5.223 15.125,-15.59 29.136,-16.663 21.533,11.976 42.121,34.155 39.531,56.245 -1.614,13.762 -11.819,30.515 -11.819,30.515 -15.198,24.209 8.959,46.336 19.521,24.311 0,0 17.749,-26.859 21.418,-47.671 4.476,-25.394 -1.717,-44.52 -19.269,-63.324 C 257.512,97.5586 199.78,91.5068 157.581,95.5478 L 129.214,58.1178 38.6076,45.0194 Z"
       id="path15"
       inkscape:connector-curvature="0"
       style="clip-rule:evenodd;fill-rule:evenodd" />
  </mask>
  <path
     d="M 4.5302,-14.227624 65.7693,66.77198 c 12.1513,32.481 40.9563,65.848 66.1533,74.981 3.297,1.195 34.686,-26.574 44.951,-46.078 2.749,-5.223 15.125,-15.59 29.136,-16.663 21.533,11.976 42.121,34.155 39.531,56.245 -1.614,13.762 -11.819,30.515 -11.819,30.515 -15.198,24.209 8.959,46.336 19.521,24.311 0,0 17.749,-26.859 21.418,-47.671 4.476,-25.394 -1.717,-44.52 -19.269,-63.324 -31.957,-40.7764 -89.689,-46.8282 -131.888,-42.7872 L 95.1366,-1.1292248 4.5302,-14.227624 Z"
     id="path17"
     inkscape:connector-curvature="0"
     style="clip-rule:evenodd;fill:#eeeeee;fill-rule:evenodd" />
  <path
     d="m 99.8467,126.019 1.8733,-0.701 -0.102,-0.273 -0.176,-0.232 -1.5953,1.206 z M 38.6076,45.0194 38.8938,43.04 l -4.8164,-0.6963 2.9349,3.8819 1.5953,-1.2062 z M 166,201 l 0.682,-1.88 0,0 L 166,201 Z m 44.951,-46.078 1.77,0.932 0,0 -1.77,-0.932 z m 29.136,-16.663 0.972,-1.748 -0.526,-0.292 -0.599,0.046 0.153,1.994 z m 39.531,56.245 -1.987,-0.233 1.987,0.233 z m -11.819,30.515 1.694,1.063 0.007,-0.011 0.007,-0.012 -1.708,-1.04 z m 19.521,24.311 -1.669,-1.102 -0.075,0.114 -0.06,0.124 1.804,0.864 z m 21.418,-47.671 1.97,0.347 -1.97,-0.347 z m -19.269,-63.324 -1.574,1.234 0.053,0.067 0.059,0.064 1.462,-1.365 z m -131.888,-42.7872 -1.594,1.208 0.674,0.8892 1.111,-0.1063 -0.191,-1.9909 z m -28.367,-37.43 1.594,-1.208 -0.495,-0.654 -0.813,-0.1174 -0.286,1.9794 z m -27.772,66.6952 -61.239,-80.9998 -3.1907,2.4124 61.2391,80.9994 3.1906,-2.412 z m 65.24,74.307 c -12.158,-4.407 -25.392,-14.761 -37.147,-28.173 -11.73,-13.385 -21.834,-29.642 -27.815,-45.629 l -3.7465,1.402 c 6.1705,16.494 16.5445,33.161 28.5535,46.863 11.985,13.675 25.752,24.571 38.792,29.297 l 1.363,-3.76 z m 42.499,-45.129 c -4.979,9.461 -15.203,21.099 -24.709,30.295 -4.733,4.578 -9.228,8.493 -12.719,11.175 -1.753,1.346 -3.208,2.348 -4.289,2.966 -0.546,0.313 -0.935,0.491 -1.18,0.576 -0.367,0.126 -0.096,-0.062 0.398,0.117 l -1.363,3.76 c 0.906,0.329 1.808,0.063 2.268,-0.095 0.582,-0.201 1.216,-0.515 1.863,-0.886 1.307,-0.748 2.925,-1.872 4.74,-3.266 3.642,-2.798 8.253,-6.82 13.063,-11.472 9.58,-9.267 20.183,-21.265 25.468,-31.307 l -3.54,-1.863 z m 30.753,-17.726 c -7.432,0.569 -14.348,3.589 -19.73,7.093 -5.324,3.468 -9.423,7.593 -11.023,10.633 l 3.54,1.863 c 1.149,-2.183 4.613,-5.853 9.666,-9.144 4.996,-3.253 11.273,-5.953 17.852,-6.457 l -0.305,-3.988 z m 41.67,58.472 c 1.378,-11.748 -3.423,-23.327 -11.118,-33.365 -7.708,-10.054 -18.462,-18.762 -29.427,-24.861 l -1.945,3.496 c 10.568,5.877 20.875,14.247 28.197,23.799 7.335,9.568 11.533,20.123 10.32,30.465 l 3.973,0.466 z m -13.805,30.282 c 1.708,1.04 1.708,1.04 1.708,1.04 0,-0.001 10e-4,-0.001 10e-4,-0.002 0,0 0.001,-10e-4 0.002,-0.003 0.002,-0.003 0.004,-0.006 0.007,-0.011 0.005,-0.009 0.014,-0.023 0.024,-0.04 0.021,-0.035 0.052,-0.086 0.091,-0.152 0.078,-0.132 0.192,-0.324 0.337,-0.573 0.29,-0.498 0.703,-1.22 1.202,-2.128 0.998,-1.816 2.346,-4.38 3.745,-7.383 2.778,-5.963 5.843,-13.826 6.688,-21.03 l -3.973,-0.466 c -0.769,6.557 -3.613,13.952 -6.341,19.806 -1.354,2.906 -2.658,5.39 -3.624,7.145 -0.482,0.878 -0.879,1.572 -1.154,2.044 -0.138,0.236 -0.244,0.417 -0.316,0.537 -0.036,0.06 -0.063,0.106 -0.081,0.135 -0.009,0.015 -0.015,0.025 -0.019,0.032 -0.002,0.003 -0.004,0.006 -0.005,0.007 0,0.001 0,0.001 0,0.002 0,0 0,0 0,0 0,0 0,-0.001 1.708,1.04 z m 17.717,23.447 c -2.464,5.139 -5.516,7.302 -8.2,7.795 -2.693,0.494 -5.579,-0.587 -7.96,-3.119 -4.746,-5.046 -7.052,-15.608 0.137,-27.06 l -3.388,-2.127 c -8.009,12.758 -5.836,25.364 0.338,31.928 3.078,3.273 7.263,5.107 11.595,4.312 4.34,-0.796 8.269,-4.127 11.085,-10 l -3.607,-1.729 z m 21.252,-47.154 c -1.778,10.088 -7.01,21.78 -11.885,31.057 -2.425,4.615 -4.738,8.587 -6.443,11.404 -0.853,1.408 -1.553,2.526 -2.038,3.29 -0.243,0.382 -0.432,0.676 -0.56,0.872 -0.064,0.099 -0.112,0.173 -0.144,0.222 -0.016,0.025 -0.028,0.043 -0.036,0.055 -0.004,0.006 -0.007,0.01 -0.009,0.013 -0.001,0.001 -0.001,0.002 -0.002,0.002 0,0.001 0,0.001 0,0.001 0,0 0,0 1.669,1.102 1.668,1.103 1.669,1.103 1.669,1.102 0,0 0,0 0.001,-10e-4 0,-0.001 10e-4,-0.003 0.003,-0.004 0.002,-0.004 0.006,-0.01 0.011,-0.017 0.009,-0.014 0.022,-0.035 0.04,-0.062 0.035,-0.053 0.087,-0.132 0.154,-0.236 0.134,-0.207 0.33,-0.511 0.58,-0.904 0.499,-0.786 1.215,-1.928 2.083,-3.364 1.737,-2.869 4.092,-6.913 6.563,-11.614 4.916,-9.356 10.393,-21.5 12.284,-32.224 l -3.94,-0.694 z M 288.007,139.7 c 8.623,9.238 14.373,18.465 17.446,28.416 3.071,9.946 3.509,20.747 1.315,33.196 l 3.94,0.694 c 2.281,-12.945 1.861,-24.404 -1.433,-35.07 -3.293,-10.662 -9.415,-20.4 -18.344,-29.966 l -2.924,2.73 z M 157.772,97.5387 c 42.046,-4.0264 98.833,2.1043 130.123,42.0303 l 3.148,-2.468 C 258.419,95.4742 199.741,89.5014 157.39,93.5569 l 0.382,3.9818 z m -30.152,-38.2129 28.367,37.43 3.188,-2.4161 -28.367,-37.4299 -3.188,2.416 z M 38.3215,46.9988 128.928,60.0973 129.5,56.1384 38.8938,43.04 38.3215,46.9988 Z"
     mask="url(#path-6-inside-1)"
     id="path19"
     inkscape:connector-curvature="0"
     style="fill:#d2d2d2"
     transform="translate(-34.0774,-59.247021)" />
  <rect
     x="257.82883"
     y="-51.039223"
     width="134.854"
     height="182.922"
     rx="3.81493"
     transform="matrix(0.85091564,0.52530236,-0.52530236,0.85091564,0,0)"
     id="rect21"
     style="fill:#e0dfe5;stroke:#c7c5cd;stroke-width:0.370148" />
  <line
     x1="248.6496"
     y1="118.71898"
     x2="280.00662"
     y2="138.07698"
     id="line23"
     style="stroke:#aaa7c3;stroke-width:8.96926975" />
  <line
     x1="236.98761"
     y1="137.60597"
     x2="325.3996"
     y2="192.18597"
     id="line25"
     style="stroke:#aaa7c3;stroke-width:8.96926975" />
  <line
     x1="203.4156"
     y1="191.98798"
     x2="291.8266"
     y2="246.56799"
     id="line27"
     style="stroke:#aaa7c3;stroke-width:8.96926975" />
  <line
     x1="190.9716"
     y1="212.14699"
     x2="279.38361"
     y2="266.72699"
     id="line29"
     style="stroke:#aaa7c3;stroke-width:8.96926975" />
  <line
     y1="155.37041"
     x2="301.31049"
     y2="202.67218"
     id="line31"
     x1="226.06563"
     style="stroke:#aaa7c3;stroke-width:8.96926975" />
  <line
     x1="215.28461"
     y1="172.76598"
     x2="263.52661"
     y2="202.54799"
     id="line33"
     style="stroke:#aaa7c3;stroke-width:8.96926975" />
  <path
     d="m 250.5746,150.85698 c 34.653,15.468 31.647,-17.87 9.457,-27.6 -20.848,-9.143 -88.906,-7.466 -84.619,-28.367 0,0 -82.702,22.706 -45.346,44.284 37.356,21.579 85.856,-3.786 120.508,11.683 z"
     id="path35"
     inkscape:connector-curvature="0"
     style="fill:#eeeeee" />
  <path
     d="m 129.4226,139.75298 c 37.356,21.579 86.5,-4.364 121.152,11.104 34.652,15.468 31.647,-17.87 9.457,-27.6 -20.849,-9.143 -91.109,-8.004 -84.109,-28.004"
     id="path37"
     inkscape:connector-curvature="0"
     style="stroke:#d2d2d2;stroke-width:2" />
  <rect
     x="704.92261"
     y="185.75298"
     width="168"
     height="50"
     rx="2.51562"
     id="rect39"
     style="fill:#7f7ef5" />
  <ellipse
     cx="729.92261"
     cy="211.25298"
     rx="18"
     ry="17.5"
     id="ellipse41"
     style="fill:#5954c3" />
  <line
     x1="762.49463"
     y1="200.18098"
     x2="803.35059"
     y2="200.18098"
     id="line43"
     style="stroke:#ffffff;stroke-width:3.14453006;stroke-linecap:round" />
  <line
     x1="762.49463"
     y1="211.18098"
     x2="835.35059"
     y2="211.18098"
     id="line45"
     style="stroke:#ffffff;stroke-width:3.14453006;stroke-linecap:round" />
  <line
     x1="762.49463"
     y1="224.18098"
     x2="835.35059"
     y2="224.18098"
     id="line47"
     style="stroke:#ffffff;stroke-width:3.14453006;stroke-linecap:round" />
  <rect
     x="614.92261"
     y="111.75298"
     width="168"
     height="50"
     rx="2.51562"
     id="rect49"
     style="fill:#7f7ef5" />
  <ellipse
     cx="639.92261"
     cy="137.25298"
     rx="18"
     ry="17.5"
     id="ellipse51"
     style="fill:#5954c3" />
  <line
     x1="672.49463"
     y1="126.18097"
     x2="713.35059"
     y2="126.18097"
     id="line53"
     style="stroke:#ffffff;stroke-width:3.14453006;stroke-linecap:round" />
  <line
     x1="672.49463"
     y1="137.18097"
     x2="745.35059"
     y2="137.18097"
     id="line55"
     style="stroke:#ffffff;stroke-width:3.14453006;stroke-linecap:round" />
  <line
     x1="672.49463"
     y1="150.18097"
     x2="745.35059"
     y2="150.18097"
     id="line57"
     style="stroke:#ffffff;stroke-width:3.14453006;stroke-linecap:round" />
  <rect
     x="369.33762"
     y="254.168"
     width="351.17099"
     height="230.17101"
     rx="12.8503"
     id="rect59"
     style="fill:#ffffff;stroke:#ededed;stroke-width:0.82905197" />
  <path
     d="m 480.8266,520.56898 29.789,-35.401 68.614,0 29.789,35.401 c 1.588,1.887 0.246,4.769 -2.221,4.769 l -123.75,0 c -2.467,0 -3.809,-2.882 -2.221,-4.769 z"
     id="path61"
     inkscape:connector-curvature="0"
     style="fill:#ffffff;stroke:#ededed;stroke-width:0.82905197" />
  <g
     id="g63"
     style="filter:url(#filter0_i)"
     transform="translate(-34.0774,-59.247021)">
    <path
       d="m 419,331.316 c 0,-1.831 1.485,-3.316 3.316,-3.316 l 313.368,0 c 1.831,0 3.316,1.485 3.316,3.316 l 0,22.684 -320,0 0,-22.684 z"
       id="path65"
       inkscape:connector-curvature="0"
       style="fill:#b1b0c0" />
    <circle
       cx="442"
       cy="340.53299"
       r="3"
       id="circle67"
       style="fill:#60b480" />
    <circle
       cx="456"
       cy="340.53299"
       r="3"
       id="circle69"
       style="fill:#dd9b4a" />
    <circle
       cx="469"
       cy="340.53299"
       r="3"
       id="circle71"
       style="fill:#c6475b" />
    <path
       d="m 419,354 320,0 0,171.684 c 0,1.831 -1.485,3.316 -3.316,3.316 l -313.368,0 C 420.485,529 419,527.515 419,525.684 L 419,354 Z"
       id="path73"
       inkscape:connector-curvature="0"
       style="fill:#3e3c49" />
    <line
       x1="505.233"
       y1="380.767"
       x2="637.76703"
       y2="380.767"
       id="line75"
       style="stroke:#e0dfe5;stroke-width:4.46655989;stroke-linecap:round" />
    <line
       x1="505.233"
       y1="390.767"
       x2="563.76703"
       y2="390.767"
       id="line77"
       style="stroke:#e0dfe5;stroke-width:4.46655989;stroke-linecap:round" />
    <line
       x1="531.23297"
       y1="405.767"
       x2="609.76703"
       y2="405.767"
       id="line79"
       style="stroke:#5fb580;stroke-width:4.46655989;stroke-linecap:round" />
    <line
       x1="531.23297"
       y1="418.767"
       x2="587.76703"
       y2="418.767"
       id="line81"
       style="stroke:#5fb580;stroke-width:4.46655989;stroke-linecap:round" />
    <line
       x1="531.23297"
       y1="433.767"
       x2="650.76703"
       y2="433.767"
       id="line83"
       style="stroke:#5fb580;stroke-width:4.46655989;stroke-linecap:round" />
    <line
       x1="557.23297"
       y1="471.767"
       x2="676.76703"
       y2="471.767"
       id="line85"
       style="stroke:#5fb580;stroke-width:4.46655989;stroke-linecap:round" />
    <line
       x1="505.233"
       y1="484.767"
       x2="599.76703"
       y2="484.767"
       id="line87"
       style="stroke:#e0dfe5;stroke-width:4.46655989;stroke-linecap:round" />
    <line
       x1="505.233"
       y1="497.767"
       x2="606.76703"
       y2="497.767"
       id="line89"
       style="stroke:#e0dfe5;stroke-width:4.46655989;stroke-linecap:round" />
    <line
       x1="557.23297"
       y1="447.767"
       x2="637.76703"
       y2="447.767"
       id="line91"
       style="stroke:#c6475b;stroke-width:4.46655989;stroke-linecap:round" />
    <line
       x1="557.23297"
       y1="459.767"
       x2="615.76703"
       y2="459.767"
       id="line93"
       style="stroke:#c6475b;stroke-width:4.46655989;stroke-linecap:round" />
  </g>
  <path
     d="m 855.5436,515.51498 c 1.105,11.509 0.481,21.347 -0.881,36.842 l 24.864,39.065 c 0.065,-1.955 0.152,-4.718 0.249,-8.059 0.2,-6.862 0.439,-16.164 0.598,-25.922 0.16,-9.759 0.239,-19.969 0.12,-28.649 -0.12,-8.711 -0.44,-15.799 -1.062,-19.367 -3.578,-20.516 -8.259,-36.066 -13.077,-47.148 -4.839,-11.129 -9.758,-17.616 -13.722,-20.195 -1.966,-1.279 -3.549,-1.506 -4.74,-1.092 -1.197,0.415 -2.308,1.582 -3.09,3.784 -1.573,4.429 -1.556,12.39 1.211,23.535 5.56,22.394 8.418,35.631 9.53,47.206 z"
     id="path95"
     inkscape:connector-curvature="0"
     style="fill:#eeeeee;stroke:#d2d2d2;stroke-width:2" />
  <path
     d="m 827.9366,559.23698 28.398,7.15 c 0.002,-0.098 0.005,-0.202 0.008,-0.312 0.023,-1.001 0.047,-2.454 0.048,-4.261 0.001,-3.613 -0.091,-8.636 -0.466,-14.268 -0.752,-11.3 -2.633,-24.919 -7.09,-34.571 -2.084,-4.512 -11.891,-23.794 -22.188,-39.634 -5.16,-7.939 -10.385,-14.92 -14.781,-18.769 -2.224,-1.948 -4.07,-2.942 -5.474,-3.04 -0.662,-0.045 -1.225,0.107 -1.729,0.47 -0.521,0.375 -1.041,1.022 -1.505,2.067 -3.885,8.745 -0.58,19.234 4.583,29.909 1.807,3.735 3.808,7.43 5.762,11.04 0.825,1.523 1.641,3.031 2.431,4.521 2.645,4.984 4.994,9.758 6.239,14.031 2.269,7.786 3.714,19.416 4.595,29.039 0.441,4.824 0.742,9.166 0.932,12.301 0.095,1.568 0.163,2.836 0.207,3.711 0.012,0.234 0.022,0.44 0.03,0.616 z"
     id="path97"
     inkscape:connector-curvature="0"
     style="fill:#eeeeee;stroke:#d2d2d2;stroke-width:2" />
  <path
     d="m 860.2556,596.68798 c -0.374,0.409 -0.761,0.779 -1.161,1.085 l 20.061,17.195 c 3.174,-9.498 7.09,-18.99 11.166,-28.507 1.019,-2.381 2.048,-4.762 3.078,-7.146 3.298,-7.634 6.607,-15.291 9.643,-23.019 7.966,-20.279 13.991,-40.897 12.898,-62.37 -0.285,-5.605 -1.515,-8.891 -3.063,-10.608 -1.47,-1.632 -3.351,-1.975 -5.46,-1.362 -2.165,0.628 -4.508,2.263 -6.586,4.506 -2.068,2.232 -3.802,4.989 -4.786,7.749 -0.661,1.857 -2.165,7.101 -4.244,14.355 -0.475,1.656 -0.98,3.417 -1.512,5.266 -2.851,9.916 -6.457,22.308 -10.298,34.509 -3.84,12.197 -7.922,24.228 -11.727,33.414 -1.901,4.59 -3.746,8.502 -5.47,11.378 -0.862,1.437 -1.71,2.644 -2.539,3.555 z"
     id="path99"
     inkscape:connector-curvature="0"
     style="fill:#eeeeee;stroke:#d2d2d2;stroke-width:2" />
  <mask
     id="path-47-inside-2"
     fill="white">
    <path
       d="m 826.998,733.262 c 23.301,19.249 44.553,23.159 61.963,17.322 41.931,2.691 81.392,25.232 81.392,25.232 l 0.706,-93.501 -54.933,-4.053 c -6.243,-31.918 -20.948,-65.234 -31.528,-77.128 -2.014,-2.902 -3.914,-5.9 -5.8,-8.878 -9.686,-15.293 -19.023,-30.036 -41.799,-28.256 -18.839,1.473 -44.405,8 -44.405,8 -23.207,14.132 -20.595,33 5.405,27.706 0,0 20.613,-5.455 33,-5.706 17.546,-0.356 24.213,13.339 32.401,30.16 0.509,1.046 1.025,2.104 1.548,3.172 5.617,11.442 11.275,28.692 13.752,36.595 -7.973,22.827 -23.98,34.35 -43.23,16.112 -12.832,-12.157 -19.147,-17.583 -22.875,-20.786 -2.119,-1.821 -3.402,-2.924 -4.572,-4.136 -1.796,-1.862 -3.324,-3.983 -7.198,-9.361 -1.122,-1.558 -2.442,-3.389 -4.022,-5.567 -16.831,-23.2 -58.682,-6.824 -25.019,15.921 16.912,11.427 21.68,23.339 26.803,36.136 5.074,12.675 10.496,26.218 28.411,41.016 z"
       id="path102"
       inkscape:connector-curvature="0"
       style="clip-rule:evenodd;fill-rule:evenodd" />
  </mask>
  <path
     d="m 792.9206,674.01498 c 23.301,19.249 44.553,23.159 61.963,17.322 41.931,2.691 81.392,25.232 81.392,25.232 l 0.706,-93.501 -54.933,-4.053 c -6.243,-31.918 -20.948,-65.234 -31.528,-77.128 -2.014,-2.902 -3.914,-5.9 -5.8,-8.878 -9.686,-15.293 -19.023,-30.036 -41.799,-28.256 -18.839,1.473 -44.405,8 -44.405,8 -23.207,14.132 -20.595,33 5.405,27.706 0,0 20.613,-5.455 33,-5.706 17.546,-0.356 24.213,13.339 32.401,30.16 0.509,1.046 1.025,2.104 1.548,3.172 5.617,11.442 11.275,28.692 13.752,36.595 -7.973,22.827 -23.98,34.35 -43.23,16.112 -12.832,-12.157 -19.147,-17.583 -22.875,-20.786 -2.119,-1.821 -3.402,-2.924 -4.572,-4.136 -1.796,-1.862 -3.324,-3.983 -7.198,-9.361 -1.122,-1.558 -2.442,-3.389 -4.022,-5.567 -16.831,-23.2 -58.682,-6.824 -25.019,15.921 16.912,11.427 21.68,23.339 26.803,36.136 5.074,12.675 10.496,26.218 28.411,41.016 z"
     id="path104"
     inkscape:connector-curvature="0"
     style="clip-rule:evenodd;fill:#eeeeee;fill-rule:evenodd" />
  <path
     d="m 888.961,750.584 -0.635,-1.896 0.372,-0.125 0.391,0.025 -0.128,1.996 z m -61.963,-17.322 1.273,-1.542 -1.273,1.542 z m 143.355,42.554 2,0.015 -0.026,3.416 -2.966,-1.695 0.992,-1.736 z m 0.706,-93.501 0.147,-1.995 1.867,0.138 -0.014,1.872 -2,-0.015 z m -54.933,-4.053 -0.147,1.995 -1.522,-0.112 -0.293,-1.499 1.962,-0.384 z m -31.528,-77.128 -1.494,1.33 -0.08,-0.09 -0.069,-0.099 1.643,-1.141 z m -5.8,-8.878 -1.689,1.07 1.689,-1.07 z M 836.999,564 l 0.156,1.994 0,0 -0.156,-1.994 z m -44.405,8 -1.04,-1.708 0.256,-0.156 0.29,-0.074 0.494,1.938 z m 5.405,27.706 0.511,1.933 -0.055,0.015 -0.057,0.011 -0.399,-1.959 z m 33,-5.706 0.04,2 -0.04,-2 z m 32.401,30.16 1.798,-0.875 -1.798,0.875 z m 1.548,3.172 1.796,-0.882 -1.796,0.882 z m 13.752,36.595 1.908,-0.598 0.198,0.632 -0.218,0.626 -1.888,-0.66 z m -43.23,16.112 -1.376,1.452 1.376,-1.452 z m -22.875,-20.786 -1.303,1.517 1.303,-1.517 z m -4.572,-4.136 -1.439,1.388 1.439,-1.388 z m -7.198,-9.361 -1.623,1.169 1.623,-1.169 z m -4.022,-5.567 1.619,-1.175 0,0 -1.619,1.175 z m -25.019,15.921 -1.12,1.657 1.12,-1.657 z m 26.803,36.136 -1.857,0.743 1.857,-0.743 z m 91.01,60.235 c -18.246,6.116 -40.204,1.875 -63.873,-17.677 l 2.547,-3.084 c 22.935,18.945 43.479,22.525 60.055,16.968 l 1.271,3.793 z m 80.756,23.335 c -0.992,1.736 -0.992,1.736 -0.992,1.736 0,0 0,0 -10e-4,0 0,0 -0.002,-10e-4 -0.004,-0.002 -0.004,-0.002 -0.01,-0.006 -0.018,-0.011 -0.018,-0.01 -0.044,-0.025 -0.08,-0.045 -0.073,-0.041 -0.182,-0.102 -0.328,-0.183 -0.291,-0.161 -0.727,-0.4 -1.299,-0.706 -1.143,-0.612 -2.83,-1.494 -4.986,-2.561 -4.315,-2.135 -10.506,-5.013 -17.999,-7.975 -15.006,-5.932 -35.137,-12.162 -55.813,-13.489 l 0.256,-3.992 c 21.255,1.364 41.821,7.75 57.027,13.761 7.614,3.01 13.908,5.935 18.303,8.11 2.198,1.088 3.922,1.989 5.1,2.62 0.589,0.315 1.042,0.563 1.349,0.733 0.154,0.085 0.271,0.151 0.351,0.196 0.04,0.022 0.07,0.04 0.091,0.051 0.011,0.006 0.019,0.011 0.025,0.014 0.003,0.002 0.005,0.003 0.007,0.004 0,10e-4 10e-4,10e-4 0.002,10e-4 0,10e-4 10e-4,10e-4 -0.991,1.738 z m 2.706,-93.486 -0.706,93.501 -4,-0.03 0.706,-93.501 4,0.03 z m -56.786,-6.062 54.933,4.052 -0.294,3.989 -54.933,-4.052 0.294,-3.989 z m -30.18,-76.463 c 5.514,6.2 11.938,17.75 17.74,31.612 5.825,13.914 11.105,30.353 14.256,46.461 l -3.925,0.768 c -3.093,-15.809 -8.287,-31.988 -14.021,-45.685 -5.755,-13.749 -11.974,-24.803 -17.039,-30.497 l 2.989,-2.659 z m -3.138,2.47 c -2.042,-2.943 -3.964,-5.977 -5.846,-8.949 l 3.379,-2.141 c 1.89,2.984 3.767,5.947 5.753,8.809 l -3.286,2.281 z m -5.846,-8.949 c -4.881,-7.707 -9.477,-14.931 -15.589,-20.07 -5.997,-5.042 -13.509,-8.111 -24.365,-7.262 l -0.312,-3.988 c 11.919,-0.931 20.464,2.481 27.251,8.189 6.673,5.61 11.589,13.404 16.394,20.99 l -3.379,2.141 z m -39.954,-27.332 c -9.291,0.726 -20.294,2.705 -29.016,4.516 -4.352,0.904 -8.119,1.762 -10.796,2.394 -1.339,0.316 -2.405,0.575 -3.135,0.755 -0.365,0.09 -0.646,0.16 -0.835,0.207 -0.094,0.024 -0.166,0.042 -0.214,0.054 -0.024,0.006 -0.041,0.011 -0.053,0.014 -0.006,10e-4 -0.01,0.002 -0.013,0.003 -10e-4,0 -0.002,10e-4 -0.003,10e-4 0,0 -10e-4,0 -10e-4,0 0,0 0,0 -0.495,-1.938 -0.494,-1.938 -0.494,-1.938 -0.494,-1.938 0,0 10e-4,0 10e-4,0 10e-4,0 0.003,-10e-4 0.004,-10e-4 0.004,-0.001 0.009,-0.002 0.015,-0.004 0.013,-0.003 0.032,-0.008 0.057,-0.014 0.051,-0.013 0.125,-0.032 0.222,-0.056 0.195,-0.049 0.481,-0.121 0.852,-0.212 0.742,-0.183 1.821,-0.445 3.173,-0.764 2.705,-0.639 6.507,-1.505 10.902,-2.417 8.77,-1.821 19.969,-3.842 29.517,-4.588 l 0.312,3.988 z m -43.52,7.714 c -5.633,3.43 -9.595,7.087 -12.013,10.486 -2.439,3.43 -3.185,6.411 -2.807,8.604 0.355,2.063 1.778,3.86 4.771,4.913 3.07,1.08 7.707,1.319 14.014,0.035 l 0.798,3.919 c -6.694,1.363 -12.133,1.229 -16.14,-0.181 -4.084,-1.437 -6.738,-4.248 -7.385,-8.007 -0.625,-3.628 0.703,-7.683 3.489,-11.601 2.807,-3.947 7.221,-7.948 13.192,-11.584 l 2.081,3.416 z m 4.364,25.998 c -0.512,-1.934 -0.512,-1.934 -0.511,-1.934 0,0 0,0 10e-4,0 0,-0.001 0.002,-0.001 0.003,-0.001 0.003,-10e-4 0.007,-0.002 0.012,-0.003 0.011,-0.003 0.027,-0.007 0.047,-0.013 0.041,-0.01 0.101,-0.026 0.179,-0.047 0.157,-0.04 0.388,-0.1 0.685,-0.176 0.595,-0.151 1.456,-0.367 2.527,-0.626 2.142,-0.519 5.127,-1.214 8.504,-1.917 6.714,-1.397 15.119,-2.859 21.512,-2.989 l 0.081,4 c -5.994,0.121 -14.088,1.513 -20.778,2.905 -3.324,0.692 -6.266,1.377 -8.377,1.888 -1.055,0.256 -1.901,0.468 -2.482,0.616 -0.291,0.074 -0.515,0.132 -0.666,0.171 -0.075,0.02 -0.132,0.034 -0.17,0.044 -0.019,0.005 -0.033,0.009 -0.043,0.012 -0.004,10e-4 -0.008,0.002 -0.01,0.002 -0.001,10e-4 -0.002,10e-4 -0.002,10e-4 0,0 -10e-4,0 -10e-4,0 0,0 0,0 -0.511,-1.933 z M 830.958,592 c 9.425,-0.191 16.019,3.443 21.244,9.308 5.105,5.732 8.939,13.642 12.996,21.977 l -3.596,1.75 c -4.131,-8.486 -7.725,-15.833 -12.387,-21.066 -4.542,-5.098 -10.055,-8.134 -18.176,-7.969 l -0.081,-4 z m 34.24,31.285 c 0.51,1.046 1.024,2.101 1.546,3.165 l -3.591,1.763 c -0.526,-1.071 -1.042,-2.132 -1.551,-3.178 l 3.596,-1.75 z m 1.546,3.165 c 5.692,11.598 11.39,28.985 13.864,36.879 l -3.817,1.196 c -2.479,-7.912 -8.098,-25.024 -13.638,-36.312 l 3.591,-1.763 z m -29.899,52.137 c 9.264,8.776 17.218,9.971 23.624,6.983 6.675,-3.114 12.422,-11.077 16.342,-22.302 l 3.777,1.319 c -4.052,11.601 -10.295,20.813 -18.428,24.608 -8.404,3.92 -18.079,1.758 -28.066,-7.704 l 2.751,-2.904 z m -22.946,-20.851 c 3.747,3.22 10.086,8.668 22.946,20.851 l -2.751,2.904 C 821.29,669.361 815,663.956 811.292,660.77 l 2.607,-3.034 z m -4.436,-4.008 c 1.091,1.131 2.294,2.168 4.436,4.008 l -2.607,3.034 c -2.097,-1.802 -3.46,-2.971 -4.708,-4.265 l 2.879,-2.777 z m -7.015,-9.141 c 3.913,5.432 5.343,7.408 7.015,9.141 l -2.879,2.777 c -1.92,-1.991 -3.546,-4.256 -7.382,-9.58 l 3.246,-2.338 z m -4.026,-5.573 c 1.582,2.181 2.904,4.015 4.026,5.573 l -3.246,2.338 c -1.122,-1.558 -2.44,-3.387 -4.017,-5.562 l 3.237,-2.349 z m -27.758,18.753 c -8.565,-5.787 -12.867,-11.509 -13.524,-16.754 -0.687,-5.492 2.673,-9.636 7.349,-11.894 9.189,-4.438 24.923,-2.525 33.933,9.895 l -3.237,2.349 c -7.821,-10.78 -21.429,-12.278 -28.957,-8.642 -3.683,1.779 -5.526,4.545 -5.119,7.795 0.438,3.498 3.529,8.352 11.795,13.937 l -2.24,3.314 z m 26.066,35.222 c -5.09,-12.717 -9.675,-24.147 -26.066,-35.222 l 2.24,-3.314 c 17.432,11.778 22.385,24.173 27.54,37.049 l -3.714,1.487 z m 28.994,41.815 C 807.415,719.68 801.841,705.754 796.73,692.989 l 3.714,-1.487 c 5.038,12.586 10.307,25.746 27.827,40.218 l -2.547,3.084 z"
     mask="url(#path-47-inside-2)"
     id="path106"
     inkscape:connector-curvature="0"
     style="fill:#d2d2d2"
     transform="translate(-34.0774,-59.247021)" />
  <circle
     cx="890.59778"
     cy="266.38705"
     r="16.4818"
     transform="matrix(0.93924831,0.34323843,-0.34323843,0.93924831,0,0)"
     id="circle108"
     style="fill:#4c9ea6" />
  <line
     x1="739.65857"
     y1="575.90387"
     x2="741.71094"
     y2="581.30121"
     id="line110"
     style="stroke:#ededed;stroke-width:3.661057;stroke-linecap:round" />
  <line
     x1="753.86627"
     y1="577.33466"
     x2="742.19177"
     y2="582.41815"
     id="line112"
     style="stroke:#ededed;stroke-width:3.6603415;stroke-linecap:round" />
  <line
     x1="739.72864"
     y1="553.77802"
     x2="741.85364"
     y2="559.74298"
     id="line114"
     style="stroke:#ededed;stroke-width:3.66261005;stroke-linecap:round" />
  <line
     x1="753.96161"
     y1="555.30402"
     x2="742.2486"
     y2="560.74701"
     id="line116"
     style="stroke:#ededed;stroke-width:3.66261005;stroke-linecap:round" />
  <defs
     id="defs118">
    <filter
       id="filter0_i"
       x="419"
       y="328"
       width="320"
       height="201"
       filterUnits="userSpaceOnUse"
       style="color-interpolation-filters:sRGB">
      <feFlood
         flood-opacity="0"
         result="BackgroundImageFix"
         id="feFlood121" />
      <feBlend
         mode="normal"
         in="SourceGraphic"
         in2="BackgroundImageFix"
         result="shape"
         id="feBlend123" />
      <feColorMatrix
         in="SourceAlpha"
         type="matrix"
         values="0 0 0 0 0 0 0 0 0 0 0 0 0 0 0 0 0 0 127 0"
         result="hardAlpha"
         id="feColorMatrix125" />
      <feOffset
         id="feOffset127" />
      <feGaussianBlur
         stdDeviation="0.829052"
         id="feGaussianBlur129" />
      <feComposite
         in2="hardAlpha"
         operator="arithmetic"
         k2="-1"
         k3="1"
         id="feComposite131"
         k1="0"
         k4="0" />
      <feColorMatrix
         type="matrix"
         values="0 0 0 0 0.537118 0 0 0 0 0.537118 0 0 0 0 0.537118 0 0 0 0.25 0"
         id="feColorMatrix133" />
      <feBlend
         mode="normal"
         in2="shape"
         result="effect1_innerShadow"
         id="feBlend135" />
    </filter>
  </defs>
</svg>
